<?xml version="1.0" encoding="utf-8"?>
<!-- Generator: Adobe Illustrator 25.4.1, SVG Export Plug-In . SVG Version: 6.00 Build 0)  -->
<svg version="1.1" id="Layer_1" xmlns="http://www.w3.org/2000/svg" xmlns:xlink="http://www.w3.org/1999/xlink" x="0px" y="0px"
	 viewBox="0 0 600 74.8" style="enable-background:new 0 0 600 74.8;" xml:space="preserve">
<style type="text/css">
	.st0{fill:#FFFFFF;}
	.st1{fill:#EA1F27;}
	.st2{fill-rule:evenodd;clip-rule:evenodd;fill:url(#SVGID_1_);}
	.st3{fill-rule:evenodd;clip-rule:evenodd;fill:#FFFFFF;}
	.st4{fill-rule:evenodd;clip-rule:evenodd;fill:url(#SVGID_00000076601800242232009840000004087536769545940115_);}
	.st5{fill:#FFFFFF;stroke:#231F20;stroke-width:0.75;}
</style>
<g>
	<g>
		<path class="st0" d="M67.4,71.4v-2c0.4,0.3,0.7,0.5,1.2,0.7c0.4,0.2,0.8,0.2,1.3,0.2c0.2,0,0.5,0,0.6-0.1c0.2,0,0.3-0.1,0.5-0.2
			c0.1-0.1,0.2-0.2,0.3-0.3s0.1-0.2,0.1-0.4c0-0.2,0-0.3-0.1-0.5s-0.2-0.3-0.4-0.4c-0.2-0.1-0.4-0.2-0.6-0.3
			c-0.2-0.1-0.5-0.2-0.7-0.3c-0.7-0.3-1.2-0.7-1.5-1.1c-0.3-0.4-0.5-0.9-0.5-1.5c0-0.5,0.1-0.9,0.3-1.2c0.2-0.3,0.4-0.6,0.7-0.8
			c0.3-0.2,0.7-0.4,1.1-0.5c0.4-0.1,0.9-0.2,1.3-0.2c0.5,0,0.9,0,1.2,0.1c0.4,0.1,0.7,0.1,1,0.3v1.9c-0.1-0.1-0.3-0.2-0.5-0.3
			s-0.4-0.1-0.5-0.2s-0.4-0.1-0.5-0.1s-0.4,0-0.5,0c-0.2,0-0.4,0-0.6,0.1s-0.3,0.1-0.5,0.2s-0.2,0.2-0.3,0.3s-0.1,0.2-0.1,0.4
			c0,0.2,0,0.3,0.1,0.4s0.2,0.2,0.3,0.3c0.1,0.1,0.3,0.2,0.5,0.3c0.2,0.1,0.4,0.2,0.7,0.3c0.3,0.2,0.7,0.3,0.9,0.5
			c0.3,0.2,0.5,0.4,0.7,0.6c0.2,0.2,0.4,0.5,0.5,0.7s0.2,0.6,0.2,1c0,0.5-0.1,0.9-0.3,1.3s-0.4,0.6-0.8,0.8
			c-0.3,0.2-0.7,0.4-1.1,0.5c-0.4,0.1-0.9,0.1-1.3,0.1c-0.5,0-0.9,0-1.4-0.1C68.1,71.6,67.7,71.5,67.4,71.4z"/>
		<path class="st0" d="M82.9,71.7h-2.1l-0.6-2H77l-0.6,2h-2.1l3.2-9.1h2.3L82.9,71.7z M79.7,68.1l-0.9-3.1c-0.1-0.2-0.1-0.5-0.1-0.8
			h0c0,0.3-0.1,0.5-0.2,0.8l-0.9,3.1H79.7z"/>
		<path class="st0" d="M89.4,64.3h-3.1v2.2h2.8v1.7h-2.8v3.5h-2v-9.1h5V64.3z"/>
		<path class="st0" d="M98.6,71.7h-2.3L95,69.4c-0.1-0.2-0.2-0.3-0.3-0.5s-0.2-0.3-0.3-0.4s-0.2-0.2-0.3-0.2s-0.2-0.1-0.3-0.1h-0.5
			v3.5h-2v-9.1h3.1c2.1,0,3.2,0.8,3.2,2.5c0,0.3,0,0.6-0.1,0.9s-0.2,0.5-0.4,0.7c-0.2,0.2-0.4,0.4-0.6,0.6s-0.5,0.3-0.8,0.4v0
			c0.1,0,0.3,0.1,0.4,0.2c0.1,0.1,0.2,0.2,0.4,0.3c0.1,0.1,0.2,0.3,0.3,0.4c0.1,0.1,0.2,0.3,0.3,0.4L98.6,71.7z M93.2,64.2v2.5h0.9
			c0.4,0,0.8-0.1,1-0.4c0.3-0.3,0.4-0.6,0.4-1c0-0.8-0.5-1.2-1.4-1.2H93.2z"/>
		<path class="st0" d="M107.5,71.7h-2.1l-0.6-2h-3.1l-0.6,2h-2.1l3.2-9.1h2.3L107.5,71.7z M104.2,68.1l-0.9-3.1
			c-0.1-0.2-0.1-0.5-0.1-0.8h0c0,0.3-0.1,0.5-0.2,0.8l-0.9,3.1H104.2z"/>
		<path class="st0" d="M116.8,71.7h-2l-3.6-5.7c-0.2-0.3-0.4-0.6-0.4-0.8h0c0,0.3,0,0.8,0,1.5v5H109v-9.1h2.1l3.5,5.5
			c0.2,0.2,0.3,0.5,0.4,0.7h0c0-0.2,0-0.6,0-1.2v-5h1.9V71.7z"/>
		<path class="st0" d="M119.2,71.7v-9.1h3.2c1,0,1.7,0.2,2.2,0.6c0.5,0.4,0.8,0.9,0.8,1.6c0,0.5-0.2,0.9-0.5,1.3s-0.7,0.6-1.2,0.8v0
			c0.6,0.1,1.1,0.3,1.5,0.7s0.6,0.9,0.6,1.4c0,0.8-0.3,1.5-0.9,2c-0.6,0.5-1.4,0.7-2.3,0.7H119.2z M121.2,64.1v2.2h0.9
			c0.4,0,0.7-0.1,1-0.3c0.2-0.2,0.4-0.5,0.4-0.8c0-0.7-0.5-1-1.4-1H121.2z M121.2,67.8v2.4h1.1c0.5,0,0.8-0.1,1.1-0.3
			s0.4-0.5,0.4-0.9c0-0.4-0.1-0.6-0.4-0.9c-0.3-0.2-0.6-0.3-1.1-0.3H121.2z"/>
		<path class="st0" d="M131.3,71.9c-1.3,0-2.3-0.4-3.1-1.3c-0.8-0.8-1.2-1.9-1.2-3.3c0-1.4,0.4-2.6,1.2-3.5c0.8-0.9,1.9-1.3,3.2-1.3
			c1.2,0,2.3,0.4,3,1.3s1.2,2,1.2,3.4c0,1.4-0.4,2.6-1.2,3.4S132.6,71.9,131.3,71.9z M131.4,64.2c-0.7,0-1.2,0.3-1.6,0.8
			c-0.4,0.5-0.6,1.2-0.6,2.1c0,0.9,0.2,1.6,0.6,2.1c0.4,0.5,0.9,0.8,1.6,0.8c0.7,0,1.2-0.3,1.6-0.8s0.6-1.2,0.6-2.1
			c0-0.9-0.2-1.7-0.6-2.2C132.6,64.5,132,64.2,131.4,64.2z"/>
		<path class="st0" d="M142.6,71.7h-5.2v-9.1h2V70h3.2V71.7z"/>
		<path class="st0" d="M151.3,67.8c0,2.7-1.2,4.1-3.7,4.1c-2.4,0-3.6-1.3-3.6-4v-5.2h2v5.3c0,1.5,0.6,2.2,1.7,2.2
			c1.1,0,1.6-0.7,1.6-2.1v-5.3h2V67.8z"/>
		<path class="st0" d="M156.8,68.9h-3.3v-1.4h3.3V68.9z"/>
		<path class="st0" d="M166.3,71.7h-2.5l-2.5-3.9c0-0.1-0.1-0.2-0.2-0.5h0v4.4h-2v-9.1h2v4.3h0c0-0.1,0.1-0.3,0.2-0.5l2.4-3.8h2.3
			l-3,4.3L166.3,71.7z"/>
		<path class="st0" d="M175.2,71.7h-2.1l-0.6-2h-3.1l-0.6,2h-2.1l3.2-9.1h2.3L175.2,71.7z M172,68.1l-0.9-3.1
			c-0.1-0.2-0.1-0.5-0.1-0.8h0c0,0.3-0.1,0.5-0.2,0.8l-0.9,3.1H172z"/>
		<path class="st0" d="M184.1,71.7h-2.3l-1.4-2.3c-0.1-0.2-0.2-0.3-0.3-0.5s-0.2-0.3-0.3-0.4s-0.2-0.2-0.3-0.2s-0.2-0.1-0.3-0.1
			h-0.5v3.5h-2v-9.1h3.1c2.1,0,3.2,0.8,3.2,2.5c0,0.3,0,0.6-0.1,0.9s-0.2,0.5-0.4,0.7c-0.2,0.2-0.4,0.4-0.6,0.6s-0.5,0.3-0.8,0.4v0
			c0.1,0,0.3,0.1,0.4,0.2c0.1,0.1,0.2,0.2,0.4,0.3c0.1,0.1,0.2,0.3,0.3,0.4c0.1,0.1,0.2,0.3,0.3,0.4L184.1,71.7z M178.7,64.2v2.5
			h0.9c0.4,0,0.8-0.1,1-0.4c0.3-0.3,0.4-0.6,0.4-1c0-0.8-0.5-1.2-1.4-1.2H178.7z"/>
		<path class="st0" d="M195.8,64.3h-2.5v7.4h-2v-7.4h-2.5v-1.7h6.9V64.3z"/>
		<path class="st0" d="M200.8,71.4v-2c0.4,0.3,0.7,0.5,1.2,0.7c0.4,0.2,0.8,0.2,1.3,0.2c0.2,0,0.5,0,0.6-0.1c0.2,0,0.3-0.1,0.5-0.2
			c0.1-0.1,0.2-0.2,0.3-0.3s0.1-0.2,0.1-0.4c0-0.2,0-0.3-0.1-0.5s-0.2-0.3-0.4-0.4c-0.2-0.1-0.4-0.2-0.6-0.3
			c-0.2-0.1-0.5-0.2-0.7-0.3c-0.7-0.3-1.2-0.7-1.5-1.1c-0.3-0.4-0.5-0.9-0.5-1.5c0-0.5,0.1-0.9,0.3-1.2c0.2-0.3,0.4-0.6,0.7-0.8
			c0.3-0.2,0.7-0.4,1.1-0.5c0.4-0.1,0.9-0.2,1.3-0.2c0.5,0,0.9,0,1.2,0.1c0.4,0.1,0.7,0.1,1,0.3v1.9c-0.1-0.1-0.3-0.2-0.5-0.3
			s-0.4-0.1-0.5-0.2s-0.4-0.1-0.5-0.1s-0.4,0-0.5,0c-0.2,0-0.4,0-0.6,0.1s-0.3,0.1-0.5,0.2s-0.2,0.2-0.3,0.3s-0.1,0.2-0.1,0.4
			c0,0.2,0,0.3,0.1,0.4s0.2,0.2,0.3,0.3c0.1,0.1,0.3,0.2,0.5,0.3c0.2,0.1,0.4,0.2,0.7,0.3c0.3,0.2,0.7,0.3,0.9,0.5
			c0.3,0.2,0.5,0.4,0.7,0.6c0.2,0.2,0.4,0.5,0.5,0.7s0.2,0.6,0.2,1c0,0.5-0.1,0.9-0.3,1.3s-0.4,0.6-0.8,0.8
			c-0.3,0.2-0.7,0.4-1.1,0.5c-0.4,0.1-0.9,0.1-1.3,0.1c-0.5,0-0.9,0-1.4-0.1C201.5,71.6,201.1,71.5,200.8,71.4z"/>
		<path class="st0" d="M216.2,71.7h-2.1l-0.6-2h-3.1l-0.6,2h-2.1l3.2-9.1h2.3L216.2,71.7z M213,68.1l-0.9-3.1
			c-0.1-0.2-0.1-0.5-0.1-0.8h0c0,0.3-0.1,0.5-0.2,0.8l-0.9,3.1H213z"/>
		<path class="st0" d="M225.6,71.7h-2L220,66c-0.2-0.3-0.4-0.6-0.4-0.8h0c0,0.3,0,0.8,0,1.5v5h-1.9v-9.1h2.1l3.5,5.5
			c0.2,0.2,0.3,0.5,0.4,0.7h0c0-0.2,0-0.6,0-1.2v-5h1.9V71.7z"/>
		<path class="st0" d="M235.6,71.7h-2.1l-0.6-2h-3.1l-0.6,2H227l3.2-9.1h2.3L235.6,71.7z M232.4,68.1l-0.9-3.1
			c-0.1-0.2-0.1-0.5-0.1-0.8h0c0,0.3-0.1,0.5-0.2,0.8l-0.9,3.1H232.4z"/>
		<path class="st0" d="M243.7,62.6l-2.8,5.8v3.2h-2v-3.2l-2.8-5.9h2.2l1.4,3.4c0,0.1,0.1,0.3,0.2,0.7h0c0.1-0.3,0.1-0.5,0.2-0.7
			l1.4-3.4H243.7z"/>
		<path class="st0" d="M246.7,71.9h-1.9v-9.2h1.9V71.9z"/>
		<path class="st0" d="M187.5,71.9h-1.9v-9.2h1.9V71.9z"/>
		<path class="st0" d="M246.7,61.7h-1.9v-1.6h1.9V61.7z"/>
	</g>
	<g>
		<path class="st1" d="M254.1,59.1H59.9c-14.7,0-26.6-11.9-26.6-26.6V0h247.5v32.4C280.8,47.1,268.9,59.1,254.1,59.1z"/>
		<g>
			<g>
				<linearGradient id="SVGID_1_" gradientUnits="userSpaceOnUse" x1="343.6372" y1="1.4862" x2="343.6372" y2="22.4534">
					<stop  offset="0" style="stop-color:#0AAA4D"/>
					<stop  offset="1" style="stop-color:#008748"/>
				</linearGradient>
				<path class="st2" d="M343.6,1.5c-5.6,0-10.2,4.7-10.2,10.5c0,2.3,0.7,4.4,1.9,6.1l-1.3,3.9l3.9-1.3c1.6,1.1,3.5,1.7,5.6,1.7
					c5.6,0,10.2-4.7,10.2-10.5C353.8,6.2,349.2,1.5,343.6,1.5L343.6,1.5z"/>
				<g>
					<path class="st3" d="M355.1,11.9c0,6.6-5.2,11.9-11.5,11.9c-2,0-3.9-0.5-5.6-1.5l-6.4,2.1l2.1-6.4c-1-1.8-1.7-3.9-1.7-6.1
						c0-6.6,5.2-11.9,11.5-11.9C349.9,0,355.1,5.3,355.1,11.9L355.1,11.9z M343.6,1.9c-5.3,0-9.7,4.5-9.7,10c0,2.2,0.7,4.2,1.8,5.9
						l-1.2,3.7l3.7-1.2c1.5,1,3.4,1.7,5.3,1.7c5.3,0,9.7-4.5,9.7-10C353.3,6.4,348.9,1.9,343.6,1.9L343.6,1.9z M349.4,14.6
						c-0.1-0.1-0.3-0.2-0.5-0.3c-0.3-0.1-1.7-0.9-1.9-0.9c-0.3-0.1-0.4-0.1-0.6,0.1c-0.2,0.3-0.7,0.9-0.9,1.1
						c-0.2,0.2-0.3,0.2-0.6,0.1c-0.3-0.1-1.2-0.5-2.3-1.4c-0.8-0.8-1.4-1.7-1.6-2c-0.2-0.3,0-0.4,0.1-0.6c0.1-0.1,0.3-0.3,0.4-0.5
						c0.1-0.2,0.2-0.3,0.3-0.5c0.1-0.2,0-0.4,0-0.5c-0.1-0.1-0.6-1.6-0.9-2.2c-0.2-0.6-0.5-0.6-0.6-0.6c-0.2,0-0.5,0.1-0.5,0.1
						s-0.6,0.1-0.8,0.4c-0.3,0.3-1,1-1,2.4c0,1.4,1,2.8,1.2,3c0.1,0.2,2,3.2,4.8,4.4c2.9,1.2,2.9,0.8,3.4,0.7c0.5,0,1.7-0.7,1.9-1.4
						C349.5,15.3,349.5,14.7,349.4,14.6L349.4,14.6z M349.4,14.6"/>
				</g>
			</g>
			<g>
				
					<linearGradient id="SVGID_00000137095615432470228460000002687154873214181309_" gradientUnits="userSpaceOnUse" x1="343.6372" y1="38.0957" x2="343.6372" y2="59.0629">
					<stop  offset="0" style="stop-color:#0AAA4D"/>
					<stop  offset="1" style="stop-color:#008748"/>
				</linearGradient>
				<path style="fill-rule:evenodd;clip-rule:evenodd;fill:url(#SVGID_00000137095615432470228460000002687154873214181309_);" d="
					M343.6,38.1c-5.6,0-10.2,4.7-10.2,10.5c0,2.3,0.7,4.4,1.9,6.1l-1.3,3.9l3.9-1.3c1.6,1.1,3.5,1.7,5.6,1.7
					c5.6,0,10.2-4.7,10.2-10.5C353.8,42.8,349.2,38.1,343.6,38.1L343.6,38.1z"/>
				<g>
					<path class="st3" d="M355.1,48.5c0,6.6-5.2,11.9-11.5,11.9c-2,0-3.9-0.5-5.6-1.5l-6.4,2.1l2.1-6.4c-1-1.8-1.7-3.9-1.7-6.1
						c0-6.6,5.2-11.9,11.5-11.9C349.9,36.6,355.1,41.9,355.1,48.5L355.1,48.5z M343.6,38.5c-5.3,0-9.7,4.5-9.7,10
						c0,2.2,0.7,4.2,1.8,5.9l-1.2,3.7l3.7-1.2c1.5,1,3.4,1.7,5.3,1.7c5.3,0,9.7-4.5,9.7-10C353.3,43,348.9,38.5,343.6,38.5
						L343.6,38.5z M349.4,51.2c-0.1-0.1-0.3-0.2-0.5-0.3c-0.3-0.1-1.7-0.9-1.9-0.9c-0.3-0.1-0.4-0.1-0.6,0.1
						c-0.2,0.3-0.7,0.9-0.9,1.1c-0.2,0.2-0.3,0.2-0.6,0.1c-0.3-0.1-1.2-0.5-2.3-1.4c-0.8-0.8-1.4-1.7-1.6-2c-0.2-0.3,0-0.4,0.1-0.6
						c0.1-0.1,0.3-0.3,0.4-0.5c0.1-0.2,0.2-0.3,0.3-0.5c0.1-0.2,0-0.4,0-0.5c-0.1-0.1-0.6-1.6-0.9-2.2c-0.2-0.6-0.5-0.6-0.6-0.6
						c-0.2,0-0.5,0.1-0.5,0.1s-0.6,0.1-0.8,0.4c-0.3,0.3-1,1-1,2.4c0,1.4,1,2.8,1.2,3c0.1,0.2,2,3.2,4.8,4.4
						c2.9,1.2,2.9,0.8,3.4,0.7c0.5,0,1.7-0.7,1.9-1.4C349.5,51.9,349.5,51.3,349.4,51.2L349.4,51.2z M349.4,51.2"/>
				</g>
			</g>
			<g>
				<path class="st0" d="M373,0.6c2.2,0,3.8,0.8,5.1,2.3c1.4,1.8,2.2,4.8,2.2,9.1c0,4.2-0.7,7.2-2.2,9.1c-1.2,1.5-2.9,2.3-5,2.3
					c-2.2,0-3.9-0.8-5.2-2.5c-1.3-1.7-2-4.6-2-8.9c0-4.2,0.7-7.2,2.2-9C369.2,1.4,370.8,0.6,373,0.6z M373,4.2c-0.5,0-1,0.2-1.4,0.5
					c-0.4,0.3-0.7,0.9-0.9,1.8c-0.3,1.1-0.4,3-0.4,5.6s0.1,4.4,0.4,5.4c0.3,1,0.6,1.6,1,1.9c0.4,0.3,0.9,0.5,1.4,0.5
					c0.5,0,1-0.2,1.4-0.5c0.4-0.3,0.7-0.9,0.9-1.8c0.3-1.1,0.4-2.9,0.4-5.6s-0.1-4.4-0.4-5.4s-0.6-1.6-1-2
					C374,4.3,373.5,4.2,373,4.2z"/>
				<path class="st0" d="M383.1,17.2l4.2-0.4c0.1,1,0.5,1.7,1.1,2.3c0.6,0.6,1.3,0.8,2.1,0.8c0.9,0,1.6-0.4,2.3-1.1
					c0.6-0.7,0.9-1.8,0.9-3.3c0-1.4-0.3-2.4-0.9-3.1c-0.6-0.7-1.4-1-2.4-1c-1.2,0-2.3,0.5-3.3,1.6l-3.5-0.5L385.8,1h11.3v4h-8
					l-0.7,3.8c1-0.5,1.9-0.7,2.9-0.7c1.9,0,3.5,0.7,4.8,2.1c1.3,1.4,2,3.2,2,5.4c0,1.8-0.5,3.5-1.6,4.9c-1.4,2-3.5,2.9-6,2.9
					c-2.1,0-3.7-0.6-5-1.7C384.1,20.6,383.4,19.1,383.1,17.2z"/>
				<path class="st0" d="M408.7,23v-4.5h-9.1v-3.7l9.6-14.1h3.6v14.1h2.8v3.7h-2.8V23H408.7z M408.7,14.7V7.1l-5.1,7.6H408.7z"/>
				<path class="st0" d="M432,19v4h-14.9c0.2-1.5,0.6-2.9,1.5-4.3c0.8-1.3,2.4-3.1,4.8-5.3c1.9-1.8,3.1-3,3.5-3.6
					c0.6-0.9,0.9-1.7,0.9-2.6c0-1-0.3-1.7-0.8-2.2c-0.5-0.5-1.2-0.8-2.1-0.8c-0.9,0-1.6,0.3-2.1,0.8c-0.5,0.5-0.8,1.4-0.9,2.7
					l-4.2-0.4c0.3-2.3,1-4,2.4-5.1s3-1.5,5-1.5c2.2,0,3.9,0.6,5.2,1.8s1.9,2.7,1.9,4.4c0,1-0.2,2-0.5,2.9c-0.4,0.9-0.9,1.9-1.7,2.8
					c-0.5,0.7-1.4,1.6-2.8,2.8c-1.3,1.2-2.2,2.1-2.6,2.5c-0.4,0.4-0.6,0.8-0.9,1.2H432z"/>
				<path class="st0" d="M443.4,17.1l4.1-0.5c0.1,1.1,0.5,1.9,1.1,2.4s1.3,0.8,2.1,0.8c0.9,0,1.6-0.3,2.2-1c0.6-0.7,0.9-1.6,0.9-2.7
					c0-1.1-0.3-1.9-0.9-2.5s-1.3-0.9-2.1-0.9c-0.5,0-1.2,0.1-2,0.3l0.5-3.5c1.2,0,2-0.2,2.6-0.8s0.9-1.2,0.9-2.1
					c0-0.7-0.2-1.3-0.7-1.8s-1-0.7-1.8-0.7c-0.7,0-1.3,0.3-1.9,0.8s-0.8,1.2-0.9,2.2l-3.9-0.7c0.3-1.3,0.7-2.4,1.2-3.2
					s1.3-1.4,2.3-1.9c1-0.5,2.1-0.7,3.3-0.7c2.1,0,3.8,0.7,5,2c1,1.1,1.6,2.3,1.6,3.7c0,2-1.1,3.5-3.2,4.7c1.3,0.3,2.3,0.9,3.1,1.8
					c0.8,1,1.1,2.1,1.1,3.4c0,2-0.7,3.6-2.1,5c-1.4,1.4-3.2,2.1-5.3,2.1c-2,0-3.7-0.6-5-1.7S443.6,18.9,443.4,17.1z"/>
				<path class="st0" d="M471.7,23h-4.3V6.9c-1.6,1.5-3.4,2.5-5.5,3.2V6.3c1.1-0.4,2.3-1.1,3.6-2.1c1.3-1,2.2-2.2,2.7-3.6h3.5V23z"
					/>
				<path class="st0" d="M481.7,11c-1.1-0.5-1.9-1.1-2.4-1.9c-0.5-0.8-0.8-1.7-0.8-2.7c0-1.7,0.6-3,1.7-4.1s2.8-1.6,4.9-1.6
					c2.1,0,3.8,0.5,4.9,1.6c1.2,1.1,1.8,2.5,1.8,4.1c0,1-0.3,1.9-0.8,2.8c-0.5,0.8-1.3,1.4-2.3,1.8c1.2,0.5,2.2,1.2,2.8,2.2
					s1,2,1,3.3c0,2.1-0.7,3.7-2,5c-1.3,1.3-3.1,1.9-5.2,1.9c-2,0-3.7-0.5-5.1-1.6c-1.6-1.3-2.4-3-2.4-5.2c0-1.2,0.3-2.3,0.9-3.3
					S480.4,11.5,481.7,11z M482.2,16.2c0,1.2,0.3,2.1,0.9,2.7c0.6,0.7,1.4,1,2.3,1c0.9,0,1.6-0.3,2.2-0.9c0.6-0.6,0.9-1.5,0.9-2.7
					c0-1-0.3-1.9-0.9-2.5c-0.6-0.6-1.3-0.9-2.2-0.9c-1,0-1.8,0.4-2.3,1.1C482.5,14.6,482.2,15.4,482.2,16.2z M482.6,6.7
					c0,0.8,0.2,1.5,0.7,2c0.5,0.5,1.1,0.7,1.9,0.7c0.8,0,1.5-0.2,1.9-0.7c0.5-0.5,0.7-1.1,0.7-2c0-0.8-0.2-1.4-0.7-1.9
					S486.1,4,485.3,4c-0.8,0-1.5,0.2-2,0.7S482.6,5.9,482.6,6.7z"/>
				<path class="st0" d="M504.1,17.8l4.1-0.5c0.1,0.8,0.4,1.5,0.8,1.9c0.4,0.4,1,0.6,1.7,0.6c0.9,0,1.6-0.4,2.2-1.2
					c0.6-0.8,1-2.5,1.2-5c-1.1,1.2-2.4,1.9-4,1.9c-1.7,0-3.3-0.7-4.5-2c-1.3-1.3-1.9-3.1-1.9-5.3c0-2.3,0.7-4.1,2-5.5s3-2.1,5.1-2.1
					c2.3,0,4.1,0.9,5.6,2.6c1.4,1.7,2.2,4.6,2.2,8.6c0,4.1-0.8,7-2.3,8.8c-1.5,1.8-3.5,2.7-5.9,2.7c-1.7,0-3.1-0.5-4.2-1.4
					C505,21,504.4,19.7,504.1,17.8z M513.7,8.5c0-1.4-0.3-2.4-0.9-3.2s-1.4-1.1-2.2-1.1c-0.8,0-1.4,0.3-2,0.9s-0.8,1.6-0.8,3.1
					c0,1.4,0.3,2.5,0.8,3.2c0.6,0.7,1.3,1,2.1,1c0.8,0,1.5-0.3,2.1-1C513.4,10.7,513.7,9.8,513.7,8.5z"/>
				<path class="st0" d="M521.2,5V1h14.6v3.1c-1.2,1.2-2.4,2.9-3.7,5.1s-2.2,4.6-2.8,7.1c-0.7,2.5-1,4.7-1,6.7h-4.1
					c0.1-3.1,0.7-6.2,1.9-9.4s2.8-6.1,4.8-8.6H521.2z"/>
				<path class="st0" d="M549.4,23h-4.3V6.9c-1.6,1.5-3.4,2.5-5.5,3.2V6.3c1.1-0.4,2.3-1.1,3.6-2.1s2.2-2.2,2.7-3.6h3.5V23z"/>
				<path class="st0" d="M565,23h-4.3V6.9c-1.6,1.5-3.4,2.5-5.5,3.2V6.3c1.1-0.4,2.3-1.1,3.6-2.1s2.2-2.2,2.7-3.6h3.5V23z"/>
				<path class="st0" d="M373,37.9c2.2,0,3.8,0.8,5.1,2.3c1.4,1.8,2.2,4.8,2.2,9.1c0,4.2-0.7,7.2-2.2,9.1c-1.2,1.5-2.9,2.3-5,2.3
					c-2.2,0-3.9-0.8-5.2-2.5c-1.3-1.7-2-4.6-2-8.9c0-4.2,0.7-7.2,2.2-9C369.2,38.7,370.8,37.9,373,37.9z M373,41.4
					c-0.5,0-1,0.2-1.4,0.5c-0.4,0.3-0.7,0.9-0.9,1.8c-0.3,1.1-0.4,3-0.4,5.6s0.1,4.4,0.4,5.4s0.6,1.6,1,1.9c0.4,0.3,0.9,0.5,1.4,0.5
					c0.5,0,1-0.2,1.4-0.5c0.4-0.3,0.7-0.9,0.9-1.8c0.3-1.1,0.4-2.9,0.4-5.6s-0.1-4.4-0.4-5.4s-0.6-1.6-1-2
					C374,41.6,373.5,41.4,373,41.4z"/>
				<path class="st0" d="M383.1,54.5l4.2-0.4c0.1,1,0.5,1.7,1.1,2.3c0.6,0.6,1.3,0.8,2.1,0.8c0.9,0,1.6-0.4,2.3-1.1
					c0.6-0.7,0.9-1.8,0.9-3.3c0-1.4-0.3-2.4-0.9-3.1c-0.6-0.7-1.4-1-2.4-1c-1.2,0-2.3,0.5-3.3,1.6l-3.5-0.5l2.2-11.6h11.3v4h-8
					l-0.7,3.8c1-0.5,1.9-0.7,2.9-0.7c1.9,0,3.5,0.7,4.8,2.1c1.3,1.4,2,3.2,2,5.4c0,1.8-0.5,3.5-1.6,4.9c-1.4,2-3.5,2.9-6,2.9
					c-2.1,0-3.7-0.6-5-1.7S383.4,56.4,383.1,54.5z"/>
				<path class="st0" d="M408.7,60.2v-4.5h-9.1V52l9.6-14.1h3.6V52h2.8v3.7h-2.8v4.5H408.7z M408.7,52v-7.6l-5.1,7.6H408.7z"/>
				<path class="st0" d="M417.7,54.5l4.2-0.4c0.1,1,0.5,1.7,1.1,2.3c0.6,0.6,1.3,0.8,2.1,0.8c0.9,0,1.6-0.4,2.3-1.1
					c0.6-0.7,0.9-1.8,0.9-3.3c0-1.4-0.3-2.4-0.9-3.1s-1.4-1-2.4-1c-1.2,0-2.3,0.5-3.3,1.6l-3.5-0.5l2.2-11.6h11.3v4h-8l-0.7,3.8
					c1-0.5,1.9-0.7,2.9-0.7c1.9,0,3.5,0.7,4.8,2.1s2,3.2,2,5.4c0,1.8-0.5,3.5-1.6,4.9c-1.4,2-3.5,2.9-6,2.9c-2.1,0-3.7-0.6-5-1.7
					S417.9,56.4,417.7,54.5z"/>
				<path class="st0" d="M451.9,60.2v-4.5h-9.1V52l9.6-14.1h3.6V52h2.8v3.7H456v4.5H451.9z M451.9,52v-7.6l-5.1,7.6H451.9z"/>
				<path class="st0" d="M460.8,54.5l4.2-0.4c0.1,1,0.5,1.7,1.1,2.3c0.6,0.6,1.3,0.8,2.1,0.8c0.9,0,1.6-0.4,2.3-1.1
					c0.6-0.7,0.9-1.8,0.9-3.3c0-1.4-0.3-2.4-0.9-3.1s-1.4-1-2.4-1c-1.2,0-2.3,0.5-3.3,1.6l-3.5-0.5l2.2-11.6h11.3v4h-8l-0.7,3.8
					c1-0.5,1.9-0.7,2.9-0.7c1.9,0,3.5,0.7,4.8,2.1s2,3.2,2,5.4c0,1.8-0.5,3.5-1.6,4.9c-1.4,2-3.5,2.9-6,2.9c-2.1,0-3.7-0.6-5-1.7
					S461.1,56.4,460.8,54.5z"/>
				<path class="st0" d="M486.4,60.2v-4.5h-9.1V52l9.6-14.1h3.6V52h2.8v3.7h-2.8v4.5H486.4z M486.4,52v-7.6l-5.1,7.6H486.4z"/>
				<path class="st0" d="M503.8,54.3l4.1-0.5c0.1,1.1,0.5,1.9,1.1,2.4c0.6,0.6,1.3,0.8,2.1,0.8c0.9,0,1.6-0.3,2.2-1
					c0.6-0.7,0.9-1.6,0.9-2.7c0-1.1-0.3-1.9-0.9-2.5s-1.3-0.9-2.1-0.9c-0.5,0-1.2,0.1-2,0.3l0.5-3.5c1.2,0,2-0.2,2.6-0.8
					s0.9-1.2,0.9-2.1c0-0.7-0.2-1.3-0.7-1.8s-1-0.7-1.8-0.7c-0.7,0-1.3,0.3-1.9,0.8c-0.5,0.5-0.8,1.2-0.9,2.2l-3.9-0.7
					c0.3-1.3,0.7-2.4,1.2-3.2s1.3-1.4,2.3-1.9s2.1-0.7,3.3-0.7c2.1,0,3.8,0.7,5,2c1,1.1,1.6,2.3,1.6,3.7c0,2-1.1,3.5-3.2,4.7
					c1.3,0.3,2.3,0.9,3.1,1.8s1.1,2.1,1.1,3.4c0,2-0.7,3.6-2.1,5c-1.4,1.4-3.2,2.1-5.3,2.1c-2,0-3.7-0.6-5-1.7S504,56.2,503.8,54.3z
					"/>
				<path class="st0" d="M521.3,55.1l4.1-0.5c0.1,0.8,0.4,1.5,0.8,1.9c0.4,0.4,1,0.6,1.7,0.6c0.9,0,1.6-0.4,2.2-1.2
					c0.6-0.8,1-2.5,1.2-5c-1.1,1.2-2.4,1.9-4,1.9c-1.7,0-3.3-0.7-4.5-2c-1.3-1.3-1.9-3.1-1.9-5.3c0-2.3,0.7-4.1,2-5.5s3-2.1,5.1-2.1
					c2.3,0,4.1,0.9,5.6,2.6c1.4,1.7,2.2,4.6,2.2,8.6c0,4.1-0.8,7-2.3,8.8c-1.5,1.8-3.5,2.7-5.9,2.7c-1.7,0-3.1-0.5-4.2-1.4
					C522.3,58.3,521.6,56.9,521.3,55.1z M531,45.8c0-1.4-0.3-2.4-0.9-3.2s-1.4-1.1-2.2-1.1c-0.8,0-1.4,0.3-2,0.9
					c-0.5,0.6-0.8,1.6-0.8,3.1c0,1.4,0.3,2.5,0.8,3.2c0.6,0.7,1.3,1,2.1,1c0.8,0,1.5-0.3,2.1-1C530.7,48,531,47,531,45.8z"/>
				<path class="st0" d="M546.9,60.2v-4.5h-9.1V52l9.6-14.1h3.6V52h2.8v3.7H551v4.5H546.9z M546.9,52v-7.6l-5.1,7.6H546.9z"/>
				<path class="st0" d="M566.7,60.2h-4.3V44.2c-1.6,1.5-3.4,2.5-5.5,3.2v-3.9c1.1-0.4,2.3-1.1,3.6-2.1c1.3-1,2.2-2.2,2.7-3.6h3.5
					V60.2z"/>
			</g>
		</g>
		<g>
			<g>
				<path class="st5" d="M58,23.8V7.3h6.5c1.6,0,2.8,0.1,3.5,0.4c0.7,0.3,1.3,0.8,1.8,1.6c0.4,0.8,0.7,1.6,0.7,2.6
					c0,1.2-0.3,2.3-1,3.1c-0.7,0.8-1.7,1.3-3,1.5c0.7,0.4,1.2,0.9,1.6,1.4s1,1.4,1.7,2.7l1.9,3.2H68l-2.2-3.6
					c-0.8-1.3-1.3-2.1-1.6-2.4s-0.6-0.6-0.9-0.7s-0.8-0.2-1.5-0.2h-0.6v6.9H58z M61.1,14.3h2.3c1.5,0,2.4-0.1,2.8-0.2
					c0.4-0.1,0.7-0.4,0.9-0.7c0.2-0.3,0.3-0.7,0.3-1.2c0-0.6-0.1-1-0.4-1.3c-0.3-0.3-0.7-0.6-1.2-0.6c-0.2,0-1-0.1-2.2-0.1h-2.4
					V14.3z"/>
				<path class="st5" d="M87.1,23.8h-3.3l-1.3-3.7h-6.1l-1.3,3.7h-3.3l5.9-16.5H81L87.1,23.8z M81.4,17.3l-2.1-6.1l-2.1,6.1H81.4z"
					/>
				<path class="st5" d="M88.6,23.8V7.3h4.6L96,18.6l2.7-11.2h4.6v16.5h-2.9v-13l-3,13h-3l-3-13v13H88.6z"/>
				<path class="st5" d="M120.1,23.8h-3.3l-1.3-3.7h-6.1l-1.3,3.7h-3.3l5.9-16.5h3.2L120.1,23.8z M114.4,17.3l-2.1-6.1l-2.1,6.1
					H114.4z"/>
				<path class="st5" d="M120.4,23.8v-3l8-10.7h-7.1V7.3h11.1v2.6L124.1,21h8.6v2.8H120.4z"/>
				<path class="st5" d="M148.4,23.8H145l-1.3-3.7h-6.1l-1.3,3.7h-3.3L139,7.3h3.2L148.4,23.8z M142.7,17.3l-2.1-6.1l-2.1,6.1H142.7
					z"/>
				<path class="st5" d="M150,23.8V7.3h3l6.2,11v-11h2.9v16.5H159l-6.1-10.8v10.8H150z"/>
				<path class="st5" d="M170.5,18.4l3-0.3c0.2,1.1,0.5,1.9,1.1,2.4c0.5,0.5,1.3,0.8,2.2,0.8c1,0,1.7-0.2,2.2-0.7
					c0.5-0.5,0.8-1,0.8-1.6c0-0.4-0.1-0.7-0.3-1s-0.6-0.5-1.1-0.7c-0.4-0.1-1.2-0.4-2.5-0.7c-1.6-0.4-2.8-1-3.5-1.6
					c-0.9-0.9-1.4-2-1.4-3.3c0-0.8,0.2-1.6,0.7-2.4c0.4-0.7,1.1-1.3,1.9-1.7c0.8-0.4,1.8-0.6,3-0.6c1.9,0,3.3,0.5,4.3,1.4
					s1.5,2.1,1.5,3.6l-3.1,0.1c-0.1-0.8-0.4-1.5-0.8-1.8c-0.4-0.4-1.1-0.6-1.9-0.6c-0.9,0-1.6,0.2-2.1,0.6c-0.3,0.3-0.5,0.6-0.5,1
					c0,0.4,0.2,0.7,0.5,1c0.4,0.4,1.3,0.7,2.8,1.1c1.5,0.4,2.6,0.8,3.3,1.2s1.3,1,1.7,1.7c0.4,0.7,0.6,1.6,0.6,2.6
					c0,0.9-0.2,1.8-0.7,2.7c-0.5,0.8-1.2,1.4-2.1,1.8c-0.9,0.4-2,0.6-3.3,0.6c-1.9,0-3.4-0.5-4.4-1.4
					C171.3,21.7,170.7,20.3,170.5,18.4z"/>
				<path class="st5" d="M184.8,15.7c0-1.7,0.2-3.1,0.7-4.2c0.3-0.8,0.8-1.6,1.4-2.3c0.6-0.7,1.3-1.2,2-1.5c0.9-0.4,2-0.7,3.3-0.7
					c2.2,0,4,0.8,5.4,2.3s2,3.6,2,6.3c0,2.7-0.7,4.7-2,6.2c-1.3,1.5-3.1,2.3-5.3,2.3c-2.3,0-4.1-0.7-5.4-2.2
					C185.4,20.3,184.8,18.3,184.8,15.7z M187.9,15.6c0,1.9,0.4,3.3,1.2,4.2c0.8,1,1.8,1.4,3,1.4c1.2,0,2.2-0.5,3-1.4
					s1.2-2.4,1.2-4.3c0-1.9-0.4-3.3-1.1-4.2c-0.8-0.9-1.8-1.4-3-1.4c-1.3,0-2.3,0.5-3.1,1.4C188.3,12.2,187.9,13.7,187.9,15.6z
					 M188.5,6.4V3.7h2.5v2.7H188.5z M192.9,6.4V3.7h2.5v2.7H192.9z"/>
				<path class="st5" d="M201.9,23.8V7.3h3l6.2,11v-11h2.9v16.5h-3.1l-6.1-10.8v10.8H201.9z"/>
				<path class="st5" d="M217.2,23.8V7.3h4.6l2.8,11.2l2.7-11.2h4.6v16.5H229v-13l-3,13h-3l-3-13v13H217.2z"/>
				<path class="st5" d="M234.9,23.8V7.3h11.3v2.8H238v3.7h7.6v2.8H238V21h8.5v2.8H234.9z"/>
				<path class="st5" d="M247.8,23.8v-3l8-10.7h-7.1V7.3h11.1v2.6L251.5,21h8.6v2.8H247.8z"/>
			</g>
			<g>
				<path class="st5" d="M71.8,51.5V35h6.5c1.6,0,2.8,0.1,3.5,0.4c0.7,0.3,1.3,0.8,1.8,1.6c0.4,0.8,0.7,1.6,0.7,2.6
					c0,1.2-0.3,2.3-1,3.1c-0.7,0.8-1.7,1.3-3,1.5c0.7,0.4,1.2,0.9,1.6,1.4s1,1.4,1.7,2.7l1.9,3.2h-3.7l-2.2-3.6
					c-0.8-1.3-1.3-2.1-1.6-2.4s-0.6-0.6-0.9-0.7s-0.8-0.2-1.5-0.2h-0.6v6.9H71.8z M74.9,41.9h2.3c1.5,0,2.4-0.1,2.8-0.2
					c0.4-0.1,0.7-0.4,0.9-0.7c0.2-0.3,0.3-0.7,0.3-1.2c0-0.6-0.1-1-0.4-1.3c-0.3-0.3-0.7-0.6-1.2-0.6c-0.2,0-1-0.1-2.2-0.1h-2.4
					V41.9z"/>
				<path class="st5" d="M87,51.5V35h3.1v16.5H87z"/>
				<path class="st5" d="M93,35h5.6c1.3,0,2.2,0.1,2.9,0.3c0.9,0.3,1.7,0.8,2.3,1.5c0.6,0.7,1.1,1.6,1.5,2.7
					c0.3,1.1,0.5,2.4,0.5,3.9c0,1.4-0.2,2.5-0.5,3.5c-0.4,1.2-0.9,2.2-1.6,2.9c-0.5,0.6-1.3,1-2.2,1.3c-0.7,0.2-1.6,0.3-2.7,0.3H93
					V35z M96.1,37.8v10.9h2.3c0.9,0,1.5-0.1,1.9-0.2c0.5-0.1,0.9-0.4,1.2-0.7s0.6-0.9,0.8-1.6c0.2-0.7,0.3-1.7,0.3-3
					c0-1.3-0.1-2.3-0.3-2.9c-0.2-0.7-0.5-1.2-0.9-1.6c-0.4-0.4-0.8-0.6-1.4-0.8c-0.4-0.1-1.3-0.2-2.5-0.2H96.1z"/>
				<path class="st5" d="M112.2,51.5L106.8,35h3.3l3.8,12.2l3.7-12.2h3.3l-5.4,16.5H112.2z"/>
				<path class="st5" d="M134.6,51.5h-3.3l-1.3-3.7h-6.1l-1.3,3.7h-3.3l5.9-16.5h3.2L134.6,51.5z M129,44.9l-2.1-6.1l-2.1,6.1H129z"
					/>
				<path class="st5" d="M136.3,51.5V35h3l6.2,11V35h2.9v16.5h-3.1l-6.1-10.8v10.8H136.3z"/>
				<path class="st5" d="M156.7,46.1l3-0.3c0.2,1.1,0.5,1.9,1.1,2.4c0.5,0.5,1.3,0.8,2.2,0.8c1,0,1.7-0.2,2.2-0.7
					c0.5-0.5,0.8-1,0.8-1.6c0-0.4-0.1-0.7-0.3-1c-0.2-0.3-0.6-0.5-1.1-0.7c-0.4-0.1-1.2-0.4-2.5-0.7c-1.6-0.4-2.8-1-3.5-1.6
					c-0.9-0.9-1.4-2-1.4-3.3c0-0.8,0.2-1.6,0.7-2.4c0.4-0.7,1.1-1.3,1.9-1.7s1.8-0.6,3-0.6c1.9,0,3.3,0.5,4.3,1.4
					c1,0.9,1.5,2.1,1.5,3.6l-3.1,0.1c-0.1-0.8-0.4-1.5-0.8-1.8c-0.4-0.4-1.1-0.6-1.9-0.6c-0.9,0-1.6,0.2-2.1,0.6
					c-0.3,0.3-0.5,0.6-0.5,1c0,0.4,0.2,0.7,0.5,1c0.4,0.4,1.3,0.7,2.8,1.1c1.5,0.4,2.6,0.8,3.3,1.2s1.3,1,1.7,1.7
					c0.4,0.7,0.6,1.6,0.6,2.6c0,0.9-0.2,1.8-0.7,2.7c-0.5,0.8-1.2,1.4-2.1,1.8c-0.9,0.4-2,0.6-3.3,0.6c-1.9,0-3.4-0.5-4.4-1.4
					C157.5,49.3,156.9,47.9,156.7,46.1z"/>
				<path class="st5" d="M171,43.3c0-1.7,0.2-3.1,0.7-4.2c0.3-0.8,0.8-1.6,1.4-2.3c0.6-0.7,1.3-1.2,2-1.5c0.9-0.4,2-0.7,3.3-0.7
					c2.2,0,4,0.8,5.4,2.3s2,3.6,2,6.3c0,2.7-0.7,4.7-2,6.2s-3.1,2.3-5.3,2.3c-2.3,0-4.1-0.7-5.4-2.2C171.7,48,171,45.9,171,43.3z
					 M174.2,43.2c0,1.9,0.4,3.3,1.2,4.2c0.8,1,1.8,1.4,3,1.4c1.2,0,2.2-0.5,3-1.4c0.8-1,1.2-2.4,1.2-4.3c0-1.9-0.4-3.3-1.1-4.2
					c-0.8-0.9-1.8-1.4-3-1.4c-1.3,0-2.3,0.5-3.1,1.4C174.6,39.9,174.2,41.3,174.2,43.2z M174.7,34v-2.7h2.5V34H174.7z M179.2,34
					v-2.7h2.5V34H179.2z"/>
				<path class="st5" d="M188.2,51.5V35h3l6.2,11V35h2.9v16.5h-3.1L191,40.7v10.8H188.2z"/>
				<path class="st5" d="M203.5,51.5V35h4.6l2.8,11.2l2.7-11.2h4.6v16.5h-2.9v-13l-3,13h-3l-3-13v13H203.5z"/>
				<path class="st5" d="M221.2,51.5V35h11.3v2.8h-8.2v3.7h7.6v2.8h-7.6v4.5h8.5v2.8H221.2z"/>
				<path class="st5" d="M234,51.5v-3l8-10.7h-7.1V35H246v2.6l-8.3,11.1h8.6v2.8H234z"/>
			</g>
		</g>
	</g>
</g>
</svg>
