<?xml version="1.0" encoding="utf-8"?>
<!-- Generator: Adobe Illustrator 25.4.1, SVG Export Plug-In . SVG Version: 6.00 Build 0)  -->
<svg version="1.1" id="Layer_1" xmlns="http://www.w3.org/2000/svg" xmlns:xlink="http://www.w3.org/1999/xlink" x="0px" y="0px"
	 viewBox="0 0 600 38" style="enable-background:new 0 0 600 38;" xml:space="preserve">
<style type="text/css">
	.st0{fill:#EB2127;}
	.st1{fill:#FFFFFF;stroke:#231F20;stroke-width:0.75;}
	.st2{fill:#FFFFFF;}
	.st3{fill-rule:evenodd;clip-rule:evenodd;fill:url(#SVGID_1_);}
	.st4{fill-rule:evenodd;clip-rule:evenodd;fill:#FFFFFF;}
	.st5{fill:url(#SVGID_00000161627499090195096270000000043242939418395777_);}
	.st6{fill:#293C8F;}
	.st7{fill:#E92429;}
</style>
<g>
	<g>
		<g>
			<g>
				<rect x="13.4" y="8.5" class="st2" width="17.3" height="20.9"/>
				<polygon class="st2" points="30.6,29.5 30.6,8.5 41.2,8.5 41.2,14.9 38,14.9 38,15.6 41,15.6 41,21.8 38,21.8 38,23.1 
					41.5,23.1 41.5,29.5 				"/>
				<path class="st2" d="M40.8,29.5V8.5h4.7c2.3,0,3.9,0.1,4.8,0.3c1.1,0.2,2.1,0.9,2.8,1.9c0.7,1,1,2.3,1,4.2
					c0,1.8-0.2,2.9-0.8,3.7c-0.1,0.1-0.1,0.1-0.2,0.2c0.4,0.5,0.7,1,0.8,1.5c0.1,0.3,0.2,0.9,0.2,3v6.2H40.8z"/>
				<rect x="53.9" y="8.5" class="st2" width="17.3" height="20.9"/>
				<polygon class="st2" points="71.1,29.5 71.1,8.5 81.7,8.5 81.7,14.9 78.5,14.9 78.5,15.6 81.5,15.6 81.5,21.8 78.5,21.8 
					78.5,23.1 82,23.1 82,29.5 				"/>
				<path class="st2" d="M81.3,29.5V8.5h4.7c2.3,0,3.9,0.1,4.8,0.3c1.1,0.2,2.1,0.9,2.8,1.9c0.7,1,1,2.3,1,4.2
					c0,1.8-0.2,2.9-0.8,3.7c-0.1,0.1-0.1,0.1-0.2,0.2c0.4,0.5,0.7,1,0.8,1.5c0.1,0.3,0.2,0.9,0.2,3v6.2H81.3z"/>
				<path class="st6" d="M29.3,9.9v18.2h-4.1l0-12.3l-1.6,12.3h-2.9l-1.7-12l0,12h-4.1V9.9h6.1c0.2,1.1,0.4,2.4,0.6,3.9l0.7,4.6
					l1.1-8.5H29.3z"/>
				<path class="st6" d="M31.9,9.9h7.9v3.6h-3.1V17h2.9v3.5h-2.9v4h3.5v3.6h-8.2V9.9z"/>
				<path class="st6" d="M42.2,9.9h3.3c2.2,0,3.7,0.1,4.5,0.3c0.8,0.2,1.4,0.6,1.9,1.3s0.7,1.8,0.7,3.4c0,1.4-0.2,2.4-0.5,2.9
					c-0.4,0.5-1,0.8-2.1,0.9c0.9,0.2,1.6,0.5,1.9,0.9c0.3,0.4,0.5,0.7,0.6,1.1c0.1,0.3,0.1,1.2,0.1,2.7v4.8h-4.4v-6
					c0-1-0.1-1.6-0.2-1.8c-0.2-0.2-0.6-0.3-1.2-0.3v8.2h-4.7V9.9z M46.9,13v4c0.5,0,0.9-0.1,1.1-0.2c0.2-0.1,0.3-0.6,0.3-1.4v-1
					c0-0.6-0.1-1-0.3-1.1C47.8,13.1,47.5,13,46.9,13z"/>
				<path class="st6" d="M69.8,9.9v18.2h-4.1l0-12.3l-1.6,12.3h-2.9l-1.7-12l0,12h-4.1V9.9h6.1c0.2,1.1,0.4,2.4,0.6,3.9l0.7,4.6
					l1.1-8.5H69.8z"/>
				<path class="st6" d="M72.5,9.9h7.9v3.6h-3.1V17h2.9v3.5h-2.9v4h3.5v3.6h-8.2V9.9z"/>
				<path class="st6" d="M82.7,9.9h3.3c2.2,0,3.7,0.1,4.5,0.3c0.8,0.2,1.4,0.6,1.9,1.3c0.5,0.7,0.7,1.8,0.7,3.4
					c0,1.4-0.2,2.4-0.5,2.9s-1,0.8-2.1,0.9c0.9,0.2,1.6,0.5,1.9,0.9c0.3,0.4,0.5,0.7,0.6,1.1c0.1,0.3,0.1,1.2,0.1,2.7v4.8h-4.4v-6
					c0-1-0.1-1.6-0.2-1.8s-0.6-0.3-1.2-0.3v8.2h-4.7V9.9z M87.4,13v4c0.5,0,0.9-0.1,1.1-0.2s0.3-0.6,0.3-1.4v-1c0-0.6-0.1-1-0.3-1.1
					C88.3,13.1,88,13,87.4,13z"/>
			</g>
		</g>
		<path class="st2" d="M7.8,23.3c-2.4,0-4.3-1.9-4.3-4.3c0-2.4,1.9-4.3,4.3-4.3c2.4,0,4.3,1.9,4.3,4.3C12.1,21.4,10.2,23.3,7.8,23.3
			z"/>
		<ellipse class="st7" cx="7.8" cy="19" rx="2.9" ry="2.9"/>
	</g>
	<g>
		<g>
			<path class="st2" d="M438.7,31.4c-1,0-2-0.3-2.9-0.8c-0.9-0.5-1.6-1.1-2.1-1.9c-0.5-0.7-0.8-1.5-0.9-2.3c-0.1-0.7-0.1-1.7-0.1-3
				V18c0-1.9,0.1-3.2,0.3-4.1c0.3-1.1,1-2.1,2.1-2.9c1.1-0.8,2.6-1.3,4.2-1.3c1.6,0,3,0.4,4.2,1.1c1.2,0.7,2,1.7,2.3,2.7
				c0.3,0.9,0.5,2.2,0.5,3.9V31h-5.3l-0.1-0.2C440.3,31.2,439.6,31.4,438.7,31.4z"/>
			<path class="st7" d="M445,18.2h-4.7v-1.7c0-1,0-1.7-0.1-2c-0.1-0.3-0.3-0.4-0.6-0.4c-0.3,0-0.5,0.1-0.6,0.3
				c-0.1,0.2-0.2,0.8-0.2,1.7v8.7c0,0.8,0.1,1.4,0.2,1.6c0.1,0.3,0.3,0.4,0.6,0.4c0.3,0,0.6-0.1,0.7-0.4c0.1-0.3,0.2-0.9,0.2-1.7
				v-2.2h-1v-2.8h5.5v9.8h-3l-0.4-1.3c-0.3,0.6-0.7,1-1.2,1.3c-0.5,0.3-1.1,0.4-1.7,0.4c-0.8,0-1.5-0.2-2.2-0.6
				c-0.7-0.4-1.2-0.9-1.6-1.4c-0.4-0.6-0.6-1.2-0.7-1.8c-0.1-0.6-0.1-1.6-0.1-2.8V18c0-1.7,0.1-3,0.3-3.8s0.7-1.5,1.6-2.2s2-1,3.4-1
				c1.4,0,2.5,0.3,3.4,0.9c0.9,0.6,1.5,1.2,1.8,2c0.3,0.8,0.4,1.9,0.4,3.4V18.2z"/>
			<path class="st2" d="M446.2,31V10.1h4.7c2.3,0,3.9,0.1,4.8,0.3c1.1,0.2,2.1,0.9,2.8,1.9c0.7,1,1,2.3,1,4.2c0,1.8-0.2,2.9-0.8,3.7
				c-0.1,0.1-0.1,0.1-0.2,0.2c0.4,0.5,0.7,1,0.8,1.5c0.1,0.3,0.2,0.9,0.2,3V31H446.2z"/>
			<path class="st7" d="M447.6,11.5h3.3c2.2,0,3.7,0.1,4.5,0.3s1.4,0.6,1.9,1.3c0.5,0.7,0.7,1.8,0.7,3.4c0,1.4-0.2,2.4-0.5,2.9
				c-0.4,0.5-1,0.8-2.1,0.9c0.9,0.2,1.6,0.5,1.9,0.9c0.3,0.4,0.5,0.7,0.6,1.1c0.1,0.3,0.1,1.2,0.1,2.7v4.8h-4.4v-6
				c0-1-0.1-1.6-0.2-1.8c-0.2-0.2-0.6-0.3-1.2-0.3v8.2h-4.7V11.5z M452.3,14.6v4c0.5,0,0.9-0.1,1.1-0.2c0.2-0.1,0.3-0.6,0.3-1.4v-1
				c0-0.6-0.1-1-0.3-1.1C453.2,14.7,452.8,14.6,452.3,14.6z"/>
			<polygon class="st2" points="458,31 460.8,10.1 470,10.1 473.1,31 			"/>
			<path class="st7" d="M468.8,11.5l2.7,18.2h-4.8l-0.3-3.3h-1.7l-0.3,3.3h-4.9l2.4-18.2H468.8z M466.3,23.1
				c-0.2-2.1-0.5-4.6-0.7-7.6c-0.5,3.5-0.8,6-0.9,7.6H466.3z"/>
			<polygon class="st2" points="478.4,31 478.4,30.8 478.4,31 471.7,31 471.7,10.1 478,10.1 478.3,10.9 478.3,10.1 484.9,10.1 
				484.9,31 			"/>
			<path class="st7" d="M483.6,11.5v18.2h-4.1l-2.5-8.3v8.3H473V11.5h3.9l2.6,8.2v-8.2H483.6z"/>
			<polygon class="st2" points="484.8,31 484.8,10.1 485.7,10.1 485.7,6.6 491.4,6.6 491.4,10.1 492.3,10.1 492.3,31 			"/>
			<path class="st7" d="M490.9,11.5v18.2h-4.7V11.5H490.9z M490,8v2.9h-2.9V8H490z"/>
			<polygon class="st2" points="494.1,31 494.1,16.5 491.4,16.5 491.4,10.1 504.4,10.1 504.4,16.5 501.6,16.5 501.6,31 			"/>
			<path class="st7" d="M503,11.5v3.6h-2.8v14.5h-4.7V15.1h-2.8v-3.6H503z"/>
		</g>
		<path class="st2" d="M427.1,23.3c-2.4,0-4.3-1.9-4.3-4.3c0-2.4,1.9-4.3,4.3-4.3c2.4,0,4.3,1.9,4.3,4.3
			C431.4,21.4,429.5,23.3,427.1,23.3z"/>
		<ellipse class="st6" cx="427.1" cy="19" rx="2.9" ry="2.9"/>
	</g>
	<g>
		<g>
			<path class="st2" d="M131.5,33.3c-1.8,0-3.1-1-3.6-2.8l-0.5-1.7h0.7c-0.4-0.2-0.8-0.4-1.1-0.7c-0.9-0.8-1.6-1.7-1.8-2.9
				c-0.2-1-0.3-2.2-0.3-3.9V16c0-1.4,0-2.4,0.1-3.1c0.1-0.9,0.5-1.7,1.1-2.5c0.6-0.8,1.4-1.4,2.4-1.9c1-0.4,2.1-0.6,3.3-0.6
				c1.6,0,3,0.3,4.1,1c1.2,0.7,2,1.6,2.4,2.7c0.3,1,0.5,2.3,0.5,4.2v3.1h-6.4v0.2h6.4v2.1c0,1.9-0.1,3.2-0.4,4.1c-0.3,1-1,2-2,2.8
				c-0.4,0.3-0.8,0.6-1.3,0.8c0.1,0.3,0.2,0.6,0.2,0.9c0,1-0.4,1.8-1.2,2.5C133.3,32.9,132.4,33.3,131.5,33.3z"/>
			<path class="st7" d="M132.2,28.1v0.2c0.4,0,0.8,0.1,1.1,0.4c0.3,0.3,0.5,0.6,0.5,1.1c0,0.6-0.2,1.1-0.7,1.5
				c-0.5,0.4-1,0.6-1.7,0.6c-1.2,0-1.9-0.6-2.2-1.8h1.7c0.1,0.3,0.3,0.5,0.6,0.5c0.2,0,0.4-0.1,0.5-0.2c0.1-0.1,0.2-0.3,0.2-0.5
				c0-0.2-0.1-0.4-0.2-0.6s-0.4-0.2-0.7-0.2h-0.3v-1.1c-1.3-0.1-2.3-0.5-3-1c-0.7-0.6-1.2-1.3-1.4-2.1s-0.3-2-0.3-3.6V16
				c0-1.3,0-2.3,0.1-2.9s0.4-1.3,0.8-1.9c0.4-0.6,1.1-1.1,1.8-1.4c0.8-0.3,1.7-0.5,2.7-0.5c1.4,0,2.5,0.3,3.4,0.8s1.5,1.2,1.8,2
				s0.4,2.1,0.4,3.8v1.7h-4.7v-3.2c0-0.9-0.1-1.5-0.2-1.7c-0.1-0.2-0.3-0.3-0.7-0.3c-0.4,0-0.6,0.1-0.7,0.4
				c-0.1,0.3-0.2,0.9-0.2,1.8v8.4c0,0.9,0.1,1.5,0.2,1.7s0.3,0.4,0.7,0.4c0.4,0,0.6-0.1,0.7-0.4c0.1-0.3,0.2-0.9,0.2-1.9v-2.3h4.7
				v0.7c0,1.7-0.1,3-0.3,3.8c-0.2,0.8-0.7,1.5-1.6,2.1S133.6,28,132.2,28.1z"/>
			<polygon class="st2" points="138.4,29.1 138.4,8.2 139.3,8.2 139.3,4.7 145,4.7 145,8.2 145.9,8.2 145.9,29.1 			"/>
			<path class="st7" d="M144.5,9.6v18.2h-4.7V9.6H144.5z M143.6,6.1V9h-2.9V6.1H143.6z"/>
			<rect x="145.8" y="8.2" class="st2" width="17.3" height="20.9"/>
			<path class="st7" d="M161.7,9.6v18.2h-4.1l0-12.3l-1.6,12.3H153l-1.7-12l0,12h-4.1V9.6h6.1c0.2,1.1,0.4,2.4,0.6,3.9l0.7,4.6
				l1.1-8.5H161.7z"/>
			<path class="st2" d="M169.5,29.5c-1.5,0-2.8-0.3-3.9-0.9c-1.2-0.6-2-1.5-2.4-2.6c-0.3-0.9-0.5-2.1-0.5-3.6v-2.6h2.5
				c-0.4-0.3-0.7-0.5-0.9-0.7c-0.5-0.5-1-1.1-1.3-2c-0.3-0.8-0.5-1.7-0.5-2.9c0-1.6,0.2-2.9,0.7-3.7c0.5-0.9,1.3-1.6,2.3-2.1
				c1-0.4,2.1-0.7,3.4-0.7c1.4,0,2.7,0.2,3.7,0.7c1.2,0.5,2,1.3,2.4,2.2c0.4,0.8,0.5,2,0.5,3.7v2.1h-2.8c1,0.7,1.7,1.4,2.1,2
				c0.7,1,1.1,2.6,1.1,4.6c0,1.5-0.2,2.7-0.6,3.5c-0.4,0.9-1.2,1.6-2.4,2.2C172,29.2,170.8,29.5,169.5,29.5z"/>
			<path class="st7" d="M174.3,15.1h-4.4v-1.3c0-0.6-0.1-1-0.2-1.2c-0.1-0.2-0.3-0.3-0.6-0.3c-0.3,0-0.5,0.1-0.6,0.3
				c-0.1,0.2-0.2,0.6-0.2,1.1c0,0.6,0.1,1.1,0.2,1.4c0.2,0.3,0.6,0.7,1.3,1.1c2.1,1.2,3.4,2.3,4,3.1s0.8,2.1,0.8,3.9
				c0,1.3-0.2,2.2-0.5,2.9s-0.9,1.1-1.8,1.5c-0.9,0.4-1.9,0.6-3,0.6c-1.3,0-2.3-0.2-3.2-0.7s-1.5-1.1-1.8-1.8
				c-0.3-0.7-0.4-1.8-0.4-3.2v-1.2h4.4v2.2c0,0.7,0.1,1.1,0.2,1.3c0.1,0.2,0.3,0.3,0.7,0.3s0.5-0.1,0.7-0.4c0.2-0.2,0.2-0.6,0.2-1.1
				c0-1.1-0.1-1.8-0.4-2.1c-0.3-0.3-1-0.9-2.2-1.7c-1.2-0.8-1.9-1.3-2.3-1.7c-0.4-0.4-0.7-0.8-0.9-1.5c-0.3-0.6-0.4-1.4-0.4-2.4
				c0-1.4,0.2-2.4,0.5-3.1c0.4-0.6,0.9-1.1,1.7-1.5c0.8-0.4,1.7-0.5,2.9-0.5c1.2,0,2.3,0.2,3.1,0.6s1.4,0.9,1.7,1.5
				c0.3,0.6,0.4,1.6,0.4,3.1V15.1z"/>
			<polygon class="st2" points="177.5,29.1 177.5,14.6 174.7,14.6 174.7,8.2 187.8,8.2 187.8,14.6 185,14.6 185,29.1 			"/>
			<path class="st7" d="M186.4,9.6v3.6h-2.8v14.5h-4.7V13.2h-2.8V9.6H186.4z"/>
			<path class="st2" d="M193.5,29.5c-1.1,0-2.2-0.2-3.1-0.6c-1-0.4-1.8-1-2.4-1.9c-0.6-0.8-1-1.7-1.1-2.7c-0.1-0.8-0.1-2.2-0.1-4.1
				v-3.1c0-1.9,0-3.2,0.1-4c0.1-1,0.5-1.9,1.1-2.7c0.6-0.8,1.4-1.5,2.4-1.9c0.9-0.4,2-0.6,3.2-0.6c1.1,0,2.2,0.2,3.1,0.6
				c1,0.4,1.8,1,2.4,1.9c0.6,0.8,1,1.7,1.1,2.7c0.1,0.8,0.1,2.2,0.1,4.1v3.1c0,1.9,0,3.2-0.1,4c-0.1,1-0.5,1.9-1.1,2.7
				c-0.6,0.8-1.4,1.5-2.4,1.9C195.8,29.3,194.7,29.5,193.5,29.5z"/>
			<path class="st7" d="M199,20.2c0,1.8,0,3.1-0.1,3.9c-0.1,0.8-0.4,1.5-0.8,2.1c-0.5,0.6-1.1,1.1-1.8,1.4c-0.8,0.3-1.7,0.5-2.7,0.5
				c-1,0-1.8-0.2-2.6-0.5c-0.8-0.3-1.4-0.8-1.9-1.4c-0.5-0.6-0.8-1.3-0.8-2.1c-0.1-0.7-0.1-2.1-0.1-3.9v-3.1c0-1.8,0-3.1,0.1-3.9
				s0.4-1.5,0.8-2.1c0.5-0.6,1.1-1.1,1.8-1.4s1.7-0.5,2.7-0.5c1,0,1.8,0.2,2.6,0.5c0.8,0.3,1.4,0.8,1.9,1.4c0.5,0.6,0.8,1.3,0.8,2.1
				c0.1,0.7,0.1,2.1,0.1,3.9V20.2z M194.3,14.2c0-0.8,0-1.4-0.1-1.6c-0.1-0.2-0.3-0.4-0.6-0.4c-0.2,0-0.4,0.1-0.6,0.3
				c-0.1,0.2-0.2,0.8-0.2,1.7v8.5c0,1.1,0,1.7,0.1,2c0.1,0.2,0.3,0.4,0.6,0.4c0.3,0,0.5-0.1,0.6-0.4c0.1-0.3,0.1-1,0.1-2V14.2z"/>
			<polygon class="st2" points="206.8,29.1 206.8,28.9 206.8,29.1 200.1,29.1 200.1,8.2 206.4,8.2 206.7,9 206.7,8.2 213.4,8.2 
				213.4,29.1 			"/>
			<path class="st7" d="M212,9.6v18.2h-4.1l-2.5-8.3v8.3h-3.9V9.6h3.9l2.6,8.2V9.6H212z"/>
			<polygon class="st2" points="213.2,29.1 213.2,8.2 223.8,8.2 223.8,14.6 220.7,14.6 220.7,15.3 223.6,15.3 223.6,21.5 
				220.7,21.5 220.7,22.7 224.2,22.7 224.2,29.1 			"/>
			<path class="st7" d="M214.6,9.6h7.9v3.6h-3.1v3.4h2.9v3.5h-2.9v4h3.5v3.6h-8.2V9.6z"/>
		</g>
		<path class="st2" d="M116.9,23.3c-2.4,0-4.3-1.9-4.3-4.3c0-2.4,1.9-4.3,4.3-4.3c2.4,0,4.3,1.9,4.3,4.3
			C121.2,21.4,119.3,23.3,116.9,23.3z"/>
		<ellipse class="st6" cx="116.9" cy="19" rx="2.9" ry="2.9"/>
	</g>
	<g>
		<g>
			<rect x="533.1" y="8.5" class="st2" width="17.3" height="20.9"/>
			<path class="st6" d="M549,9.9v18.2h-4.1l0-12.3l-1.6,12.3h-2.9l-1.7-12l0,12h-4.1V9.9h6.1c0.2,1.1,0.4,2.4,0.6,3.9l0.7,4.6
				l1.1-8.5H549z"/>
			<polygon class="st2" points="550.3,29.5 550.3,8.5 560.9,8.5 560.9,14.9 557.7,14.9 557.7,15.6 560.7,15.6 560.7,21.8 
				557.7,21.8 557.7,23.1 561.2,23.1 561.2,29.5 			"/>
			<path class="st6" d="M551.6,9.9h7.9v3.6h-3.1V17h2.9v3.5h-2.9v4h3.5v3.6h-8.2V9.9z"/>
			<polygon class="st2" points="559.7,29.5 559.7,25.2 562.9,14.9 560.1,14.9 560.1,8.5 571.2,8.5 571.2,13.8 568.2,23.1 
				571.2,23.1 571.2,29.5 			"/>
			<path class="st6" d="M569.8,9.9v3.6l-3.5,10.9h3.5v3.6h-8.7v-2.6l3.6-11.9h-3.2V9.9H569.8z"/>
			<polygon class="st2" points="569.6,29.5 572.3,8.5 581.5,8.5 584.6,29.5 			"/>
			<path class="st6" d="M580.3,9.9l2.7,18.2h-4.8l-0.3-3.3h-1.7l-0.3,3.3h-4.9l2.4-18.2H580.3z M577.8,21.6
				c-0.2-2.1-0.5-4.6-0.7-7.6c-0.5,3.5-0.8,6-0.9,7.6H577.8z"/>
			<path class="st2" d="M583.2,29.5V8.5h4.7c2.3,0,3.9,0.1,4.8,0.3c1.1,0.2,2.1,0.9,2.8,1.9c0.7,1,1,2.3,1,4.2
				c0,1.8-0.2,2.9-0.8,3.7c-0.1,0.1-0.1,0.1-0.2,0.2c0.4,0.5,0.7,1,0.8,1.5c0.1,0.3,0.2,0.9,0.2,3v6.2H583.2z"/>
			<path class="st6" d="M584.6,9.9h3.3c2.2,0,3.7,0.1,4.5,0.3c0.8,0.2,1.4,0.6,1.9,1.3c0.5,0.7,0.7,1.8,0.7,3.4
				c0,1.4-0.2,2.4-0.5,2.9c-0.4,0.5-1,0.8-2.1,0.9c0.9,0.2,1.6,0.5,1.9,0.9c0.3,0.4,0.5,0.7,0.6,1.1c0.1,0.3,0.1,1.2,0.1,2.7v4.8
				h-4.4v-6c0-1-0.1-1.6-0.2-1.8s-0.6-0.3-1.2-0.3v8.2h-4.7V9.9z M589.3,13v4c0.5,0,0.9-0.1,1.1-0.2c0.2-0.1,0.3-0.6,0.3-1.4v-1
				c0-0.6-0.1-1-0.3-1.1C590.2,13.1,589.8,13,589.3,13z"/>
		</g>
		<path class="st2" d="M525.2,23.3c-2.4,0-4.3-1.9-4.3-4.3c0-2.4,1.9-4.3,4.3-4.3c2.4,0,4.3,1.9,4.3,4.3
			C529.4,21.4,527.5,23.3,525.2,23.3z"/>
		<ellipse class="st7" cx="525.2" cy="19" rx="2.9" ry="2.9"/>
	</g>
	<g>
		<g>
			<rect x="250.1" y="8.5" class="st2" width="17.3" height="20.9"/>
			<path class="st6" d="M266.1,9.9v18.2h-4.1l0-12.3l-1.6,12.3h-2.9l-1.7-12l0,12h-4.1V9.9h6.1c0.2,1.1,0.4,2.4,0.6,3.9l0.7,4.6
				l1.1-8.5H266.1z"/>
			<path class="st2" d="M274.2,29.8c-1.3,0-2.4-0.2-3.4-0.7c-1.1-0.5-1.9-1.1-2.4-1.9c-0.5-0.8-0.9-1.6-1-2.5
				c-0.1-0.7-0.1-2.1-0.1-4.2V8.5h13.5v13.5c0,1.5-0.1,2.5-0.2,3.1c-0.1,0.8-0.5,1.6-1.1,2.3c-0.6,0.8-1.4,1.4-2.3,1.8
				C276.4,29.6,275.3,29.8,274.2,29.8z"/>
			<path class="st6" d="M279.4,9.9v12.1c0,1.4,0,2.3-0.1,2.9c-0.1,0.6-0.4,1.1-0.8,1.7c-0.4,0.6-1,1-1.7,1.3
				c-0.7,0.3-1.6,0.5-2.5,0.5c-1.1,0-2-0.2-2.9-0.5s-1.4-0.8-1.9-1.4c-0.4-0.6-0.7-1.2-0.7-1.8s-0.1-2-0.1-4V9.9h4.7v13.6
				c0,0.8,0,1.3,0.1,1.5c0.1,0.2,0.3,0.3,0.5,0.3c0.3,0,0.5-0.1,0.6-0.4s0.1-0.8,0.1-1.7V9.9H279.4z"/>
			<polygon class="st2" points="282.6,29.5 282.6,14.9 279.8,14.9 279.8,8.5 292.8,8.5 292.8,14.9 290,14.9 290,29.5 			"/>
			<path class="st6" d="M291.5,9.9v3.6h-2.8v14.5h-4.7V13.5h-2.8V9.9H291.5z"/>
			<polygon class="st2" points="291.9,29.5 291.9,8.5 302.6,8.5 302.6,14.9 299.4,14.9 299.4,15.6 302.3,15.6 302.3,21.8 
				299.4,21.8 299.4,29.5 			"/>
			<path class="st6" d="M293.3,9.9h8v3.6H298V17h2.9v3.5H298v7.6h-4.7V9.9z"/>
			<polygon class="st2" points="300,29.5 302.8,8.5 312,8.5 315.1,29.5 			"/>
			<path class="st6" d="M310.8,9.9l2.7,18.2h-4.8l-0.3-3.3h-1.7l-0.3,3.3h-4.9L304,9.9H310.8z M308.3,21.6c-0.2-2.1-0.5-4.6-0.7-7.6
				c-0.5,3.5-0.8,6-0.9,7.6H308.3z"/>
			<polygon class="st2" points="313.7,29.5 313.7,8.5 328.2,8.5 325,18.1 328.4,29.5 			"/>
			<path class="st6" d="M326.3,9.9l-2.7,8.2l3,10h-4.9l-1.9-7.8v7.8H315V9.9h4.7V17l2.1-7.1H326.3z"/>
			<polygon class="st2" points="333.5,29.5 333.5,14.9 330.7,14.9 330.7,8.5 343.7,8.5 343.7,14.9 340.9,14.9 340.9,29.5 			"/>
			<path class="st6" d="M342.4,9.9v3.6h-2.8v14.5h-4.7V13.5h-2.8V9.9H342.4z"/>
			<polygon class="st2" points="342.8,29.5 342.8,8.5 353.4,8.5 353.4,14.9 350.3,14.9 350.3,15.6 353.2,15.6 353.2,21.8 
				350.3,21.8 350.3,23.1 353.7,23.1 353.7,29.5 			"/>
			<path class="st6" d="M344.2,9.9h7.9v3.6h-3.1V17h2.9v3.5h-2.9v4h3.5v3.6h-8.2V9.9z"/>
			<polygon class="st2" points="352.3,29.5 352.3,25.2 355.4,14.9 352.7,14.9 352.7,8.5 363.7,8.5 363.7,13.8 360.7,23.1 
				363.7,23.1 363.7,29.5 			"/>
			<path class="st6" d="M362.3,9.9v3.6l-3.5,10.9h3.5v3.6h-8.7v-2.6l3.6-11.9h-3.2V9.9H362.3z"/>
			<path class="st2" d="M368.7,29.8c-1,0-2-0.3-2.9-0.8c-0.9-0.5-1.6-1.1-2.1-1.9c-0.5-0.7-0.8-1.5-0.9-2.3c-0.1-0.7-0.1-1.7-0.1-3
				v-5.4c0-1.9,0.1-3.2,0.3-4.1c0.3-1.1,1-2.1,2.1-2.9c1.1-0.8,2.5-1.3,4.2-1.3c1.6,0,3,0.4,4.2,1.1c1.2,0.7,2,1.7,2.3,2.7
				c0.3,0.9,0.5,2.2,0.5,3.9v13.6h-5.3l-0.1-0.2C370.4,29.7,369.6,29.8,368.7,29.8z"/>
			<path class="st6" d="M375.1,16.6h-4.7v-1.7c0-1,0-1.7-0.1-2c-0.1-0.3-0.3-0.4-0.6-0.4c-0.3,0-0.5,0.1-0.6,0.3
				c-0.1,0.2-0.2,0.8-0.2,1.7v8.7c0,0.8,0.1,1.4,0.2,1.6c0.1,0.3,0.3,0.4,0.6,0.4c0.3,0,0.6-0.1,0.7-0.4c0.1-0.3,0.2-0.9,0.2-1.7
				v-2.2h-1v-2.8h5.5v9.8h-3l-0.4-1.3c-0.3,0.6-0.7,1-1.2,1.3s-1.1,0.4-1.7,0.4c-0.8,0-1.5-0.2-2.2-0.6c-0.7-0.4-1.2-0.9-1.6-1.4
				c-0.4-0.6-0.6-1.2-0.7-1.8c-0.1-0.6-0.1-1.6-0.1-2.8v-5.4c0-1.7,0.1-3,0.3-3.8c0.2-0.8,0.7-1.5,1.6-2.2c0.9-0.7,2-1,3.4-1
				c1.4,0,2.5,0.3,3.4,0.9c0.9,0.6,1.5,1.2,1.8,2c0.3,0.8,0.4,1.9,0.4,3.4V16.6z"/>
			<polygon class="st2" points="375,29.5 377.8,8.5 387,8.5 390.1,29.5 			"/>
			<path class="st6" d="M385.8,9.9l2.7,18.2h-4.8l-0.3-3.3h-1.7l-0.3,3.3h-4.9L379,9.9H385.8z M383.3,21.6c-0.2-2.1-0.5-4.6-0.7-7.6
				c-0.5,3.5-0.8,6-0.9,7.6H383.3z"/>
			<rect x="388.7" y="8.5" class="st2" width="13.6" height="20.9"/>
			<path class="st6" d="M400.9,9.9v18.2h-4.7v-7.6h-1.4v7.6H390V9.9h4.7v6.5h1.4V9.9H400.9z"/>
			<rect x="402.1" y="8.5" class="st2" width="7.5" height="20.9"/>
			<path class="st6" d="M408.2,9.9v18.2h-4.7V9.9H408.2z"/>
		</g>
		<path class="st2" d="M243.1,23.3c-2.4,0-4.3-1.9-4.3-4.3c0-2.4,1.9-4.3,4.3-4.3c2.4,0,4.3,1.9,4.3,4.3
			C247.4,21.4,245.5,23.3,243.1,23.3z"/>
		<ellipse class="st7" cx="243.1" cy="19" rx="2.9" ry="2.9"/>
	</g>
</g>
</svg>
