<?xml version="1.0" encoding="utf-8"?>
<!-- Generator: Adobe Illustrator 25.4.1, SVG Export Plug-In . SVG Version: 6.00 Build 0)  -->
<svg version="1.1" id="Layer_1" xmlns="http://www.w3.org/2000/svg" xmlns:xlink="http://www.w3.org/1999/xlink" x="0px" y="0px"
	 viewBox="0 0 600 74.8" style="enable-background:new 0 0 600 74.8;" xml:space="preserve">
<style type="text/css">
	.st0{fill:#EB2127;}
	.st1{fill:#FFFFFF;stroke:#231F20;stroke-width:0.75;}
	.st2{fill:#FFFFFF;}
	.st3{fill-rule:evenodd;clip-rule:evenodd;fill:url(#SVGID_1_);}
	.st4{fill-rule:evenodd;clip-rule:evenodd;fill:#FFFFFF;}
</style>
<g>
	<g>
		<path class="st0" d="M254.6,57.9H36.7c-12.9,0-23.4-10.5-23.4-23.4V13.7H278v20.8C278,47.4,267.5,57.9,254.6,57.9z"/>
		<g>
			<path class="st1" d="M30.9,23.8h4.5c3,0,5,0.1,6.1,0.4c1.1,0.2,1.9,0.9,2.6,1.9c0.7,1,1,2.6,1,4.9c0,2-0.2,3.4-0.7,4.1
				s-1.4,1.1-2.8,1.3c1.3,0.3,2.1,0.8,2.5,1.3c0.4,0.6,0.7,1.1,0.8,1.5c0.1,0.5,0.2,1.8,0.2,3.9V50h-5.9v-8.7c0-1.4-0.1-2.3-0.3-2.6
				s-0.7-0.5-1.6-0.5V50h-6.3V23.8z M37.2,28.3v5.8c0.7,0,1.2-0.1,1.5-0.3c0.3-0.2,0.4-0.9,0.4-2v-1.4c0-0.8-0.1-1.4-0.4-1.6
				C38.5,28.4,38,28.3,37.2,28.3z"/>
			<path class="st1" d="M59.5,23.8L63.1,50h-6.5l-0.3-4.7H54L53.6,50h-6.6l3.2-26.2H59.5z M56.1,40.7c-0.3-3-0.6-6.6-1-11
				c-0.6,5-1.1,8.7-1.2,11H56.1z"/>
			<path class="st1" d="M84.7,23.8V50h-5.5l0-17.7L77,50h-3.9l-2.3-17.3l0,17.3h-5.5V23.8h8.2c0.2,1.6,0.5,3.4,0.8,5.6l0.9,6.7
				l1.5-12.2H84.7z"/>
			<path class="st1" d="M99.3,23.8l3.6,26.2h-6.5l-0.3-4.7h-2.3L93.4,50h-6.6l3.2-26.2H99.3z M95.9,40.7c-0.3-3-0.6-6.6-1-11
				c-0.6,5-1.1,8.7-1.2,11H95.9z"/>
			<path class="st1" d="M116.3,23.8v5.2l-4.7,15.7h4.7V50h-11.7v-3.8l4.9-17.2h-4.3v-5.2H116.3z"/>
			<path class="st1" d="M130.5,23.8l3.6,26.2h-6.5l-0.3-4.7h-2.3l-0.4,4.7h-6.6l3.2-26.2H130.5z M127.2,40.7c-0.3-3-0.6-6.6-1-11
				c-0.6,5-1.1,8.7-1.2,11H127.2z"/>
			<path class="st1" d="M150.4,23.8V50h-5.6l-3.3-11.9V50h-5.3V23.8h5.3l3.6,11.8V23.8H150.4z"/>
			<path class="st1" d="M173.8,31.8h-5.9v-1.9c0-0.9-0.1-1.5-0.2-1.7c-0.2-0.2-0.4-0.4-0.8-0.4c-0.4,0-0.7,0.2-0.9,0.5
				c-0.2,0.3-0.3,0.8-0.3,1.5c0,0.9,0.1,1.5,0.3,2c0.2,0.4,0.8,1,1.8,1.6c2.8,1.8,4.6,3.3,5.3,4.4c0.7,1.2,1.1,3,1.1,5.6
				c0,1.9-0.2,3.2-0.6,4.1s-1.2,1.6-2.4,2.2c-1.2,0.6-2.5,0.9-4.1,0.9c-1.7,0-3.1-0.3-4.3-1c-1.2-0.7-2-1.6-2.4-2.6
				c-0.4-1.1-0.6-2.6-0.6-4.5v-1.7h5.9v3.2c0,1,0.1,1.6,0.2,1.9c0.2,0.3,0.5,0.4,0.9,0.4s0.7-0.2,0.9-0.5s0.3-0.9,0.3-1.6
				c0-1.5-0.2-2.6-0.6-3c-0.4-0.5-1.4-1.3-3-2.4c-1.6-1.1-2.6-1.9-3.1-2.4s-0.9-1.2-1.3-2.1s-0.5-2-0.5-3.4c0-2,0.2-3.5,0.7-4.4
				c0.5-0.9,1.2-1.7,2.3-2.2c1.1-0.5,2.4-0.8,3.9-0.8c1.6,0,3.1,0.3,4.2,0.9s1.9,1.3,2.3,2.2s0.6,2.3,0.6,4.4V31.8z"/>
			<path class="st1" d="M191.8,39.2c0,2.6-0.1,4.5-0.2,5.6c-0.1,1.1-0.5,2.1-1.1,3c-0.6,0.9-1.4,1.6-2.5,2.1c-1,0.5-2.2,0.7-3.6,0.7
				c-1.3,0-2.5-0.2-3.5-0.7c-1-0.5-1.9-1.1-2.5-2.1c-0.6-0.9-1-1.9-1.1-3c-0.1-1.1-0.2-3-0.2-5.7v-4.5c0-2.6,0.1-4.5,0.2-5.6
				c0.1-1.1,0.5-2.1,1.1-3c0.6-0.9,1.4-1.6,2.5-2.1c1-0.5,2.2-0.7,3.6-0.7c1.3,0,2.5,0.2,3.5,0.7c1,0.5,1.9,1.1,2.5,2.1
				c0.6,0.9,1,1.9,1.1,3c0.1,1.1,0.2,3,0.2,5.7V39.2z M183.1,18.8V23h-3.9v-4.2H183.1z M185.5,30.6c0-1.2-0.1-2-0.2-2.3
				c-0.1-0.3-0.4-0.5-0.8-0.5c-0.3,0-0.6,0.1-0.8,0.4c-0.2,0.3-0.3,1.1-0.3,2.4v12.2c0,1.5,0.1,2.5,0.2,2.8c0.1,0.4,0.4,0.5,0.8,0.5
				c0.4,0,0.7-0.2,0.8-0.6c0.1-0.4,0.2-1.4,0.2-2.9V30.6z M189.7,18.8V23h-3.9v-4.2H189.7z"/>
			<path class="st1" d="M209.3,23.8V50h-5.6l-3.3-11.9V50h-5.3V23.8h5.3l3.6,11.8V23.8H209.3z"/>
			<path class="st1" d="M232.4,23.8V50h-5.5l0-17.7L224.7,50h-3.9l-2.3-17.3l0,17.3h-5.5V23.8h8.2c0.2,1.6,0.5,3.4,0.8,5.6l0.9,6.7
				l1.5-12.2H232.4z"/>
			<path class="st1" d="M236,23.8h10.6v5.2h-4.2v5h4v5h-4v5.8h4.7V50h-11V23.8z"/>
			<path class="st1" d="M260.4,23.8v5.2l-4.7,15.7h4.7V50h-11.7v-3.8l4.9-17.2h-4.3v-5.2H260.4z"/>
		</g>
	</g>
	<g>
		<g>
			<path class="st2" d="M335.6,41.2c-6.1,0-9.2-4.3-9.2-12.9c0-4.5,0.8-7.9,2.5-10.2c1.7-2.3,4.1-3.5,7.2-3.5c6,0,9,4.4,9,13.2
				c0,4.4-0.8,7.7-2.5,10S338.7,41.2,335.6,41.2z M335.9,18.9c-2.5,0-3.7,3.1-3.7,9.3c0,5.8,1.2,8.7,3.6,8.7c2.4,0,3.5-3,3.5-9
				C339.3,21.9,338.2,18.9,335.9,18.9z"/>
			<path class="st2" d="M350.1,40.1v-4.9c1.8,1.1,3.6,1.6,5.6,1.6c1.5,0,2.7-0.4,3.5-1.1s1.3-1.7,1.3-2.9c0-2.6-1.8-3.8-5.4-3.8
				c-1.3,0-2.9,0.1-4.6,0.3l1-14.4h13.7v4.6h-9.3l-0.4,5.2c0.9-0.1,1.7-0.1,2.4-0.1c2.7,0,4.7,0.7,6.2,2.1c1.5,1.4,2.2,3.3,2.2,5.6
				c0,2.6-0.9,4.7-2.7,6.4c-1.8,1.7-4.2,2.5-7.3,2.5C353.9,41.2,351.8,40.8,350.1,40.1z"/>
			<path class="st2" d="M387.1,15v16.3h3.1v4.2h-3.1v5.3h-5.2v-5.3h-11.2V31c1-1.1,2-2.3,3.1-3.7c1.1-1.3,2.1-2.7,3.1-4.1
				c1-1.4,1.9-2.8,2.8-4.2s1.6-2.8,2.2-4.1H387.1z M375.7,31.2h6.2v-9c-0.4,0.8-0.9,1.6-1.4,2.4c-0.5,0.8-1,1.6-1.5,2.4
				s-1.1,1.5-1.6,2.2C376.8,29.9,376.3,30.6,375.7,31.2z"/>
			<path class="st2" d="M400.1,36.1H411v4.7h-17.2v-1.9c0-1.3,0.2-2.5,0.7-3.6c0.4-1,1-2,1.7-2.8c0.7-0.8,1.4-1.6,2.2-2.2
				c0.8-0.6,1.6-1.2,2.3-1.7c0.8-0.5,1.4-1.1,2-1.5c0.6-0.5,1-1,1.4-1.5c0.4-0.5,0.7-1,0.9-1.5c0.2-0.5,0.3-1,0.3-1.6
				c0-1.1-0.3-1.9-0.9-2.5s-1.6-0.8-2.9-0.8c-2.2,0-4.3,0.9-6.4,2.6v-5c2.2-1.5,4.8-2.2,7.6-2.2c1.3,0,2.5,0.2,3.5,0.5
				s1.9,0.8,2.6,1.5c0.7,0.6,1.3,1.4,1.6,2.3c0.4,0.9,0.6,1.9,0.6,3c0,1.2-0.2,2.2-0.5,3.2c-0.4,0.9-0.9,1.8-1.5,2.5
				c-0.6,0.8-1.3,1.4-2.1,2.1s-1.6,1.2-2.5,1.8c-0.6,0.4-1.1,0.8-1.7,1.2s-1,0.8-1.4,1.2s-0.7,0.8-1,1.1
				C400.2,35.4,400.1,35.7,400.1,36.1z"/>
			<path class="st2" d="M428.2,39.9v-5c1.7,1.3,3.7,1.9,6,1.9c1.5,0,2.6-0.3,3.4-0.9c0.8-0.6,1.2-1.5,1.2-2.6c0-1.2-0.5-2-1.5-2.7
				c-1-0.6-2.4-0.9-4.1-0.9h-2.4v-4.4h2.2c3.4,0,5-1.1,5-3.3c0-2.1-1.3-3.1-3.9-3.1c-1.7,0-3.4,0.6-5,1.7v-4.6
				c1.8-0.9,3.9-1.4,6.3-1.4c2.6,0,4.7,0.6,6.2,1.8c1.5,1.2,2.2,2.7,2.2,4.6c0,3.4-1.7,5.5-5.1,6.3v0.1c1.8,0.2,3.3,0.9,4.3,2
				s1.6,2.4,1.6,4c0,2.4-0.9,4.3-2.6,5.7c-1.8,1.4-4.2,2.1-7.3,2.1C432,41.2,429.8,40.8,428.2,39.9z"/>
			<path class="st2" d="M463.4,14.4v26.4h-5.7v-20c-0.3,0.3-0.7,0.5-1.1,0.8c-0.4,0.2-0.9,0.5-1.4,0.7c-0.5,0.2-1,0.4-1.5,0.5
				c-0.5,0.1-1,0.2-1.5,0.3v-4.8c1.5-0.4,2.9-1,4.2-1.7c1.3-0.7,2.5-1.4,3.5-2.2H463.4z"/>
			<path class="st2" d="M472.3,33.8c0-0.7,0.1-1.4,0.3-2.1c0.2-0.7,0.5-1.3,0.9-1.9s0.9-1.1,1.6-1.5c0.6-0.4,1.4-0.8,2.2-1.1
				c-1.3-0.6-2.3-1.5-3-2.5s-1.1-2.1-1.1-3.4c0-1,0.2-1.9,0.6-2.7c0.4-0.8,1-1.6,1.7-2.2c0.7-0.6,1.6-1.1,2.6-1.4
				c1-0.3,2.1-0.5,3.3-0.5c1.2,0,2.3,0.2,3.4,0.5c1,0.3,1.9,0.8,2.6,1.4c0.7,0.6,1.3,1.3,1.7,2.2c0.4,0.8,0.6,1.7,0.6,2.7
				c0,1.2-0.4,2.3-1.2,3.3c-0.8,1-1.8,1.8-3.2,2.5c0.8,0.3,1.6,0.7,2.2,1.1c0.6,0.5,1.2,1,1.6,1.5c0.4,0.6,0.8,1.2,1,1.9
				c0.2,0.7,0.3,1.4,0.3,2.1c0,1.1-0.2,2.1-0.7,3c-0.4,0.9-1.1,1.7-1.9,2.3c-0.8,0.7-1.8,1.2-2.9,1.5c-1.1,0.4-2.4,0.5-3.7,0.5
				c-1.3,0-2.6-0.2-3.7-0.5s-2.1-0.9-2.9-1.5c-0.8-0.6-1.4-1.4-1.9-2.3C472.5,35.9,472.3,34.9,472.3,33.8z M477.7,33.3
				c0,0.6,0.1,1.1,0.3,1.6c0.2,0.5,0.4,0.9,0.8,1.2s0.7,0.6,1.2,0.7s1,0.3,1.6,0.3c0.6,0,1.1-0.1,1.5-0.3s0.9-0.4,1.2-0.8
				c0.3-0.3,0.6-0.7,0.8-1.2s0.3-1,0.3-1.6c0-0.5-0.1-1-0.3-1.5c-0.2-0.5-0.4-0.9-0.8-1.2s-0.7-0.6-1.2-0.8s-1-0.3-1.6-0.3
				c-0.5,0-1,0.1-1.5,0.3c-0.5,0.2-0.9,0.5-1.2,0.8c-0.3,0.3-0.6,0.7-0.8,1.2C477.8,32.3,477.7,32.8,477.7,33.3z M478.4,21.9
				c0,0.5,0.1,0.9,0.2,1.3c0.2,0.4,0.4,0.8,0.7,1c0.3,0.3,0.6,0.5,1,0.7s0.8,0.3,1.2,0.3c0.4,0,0.8-0.1,1.2-0.3
				c0.4-0.2,0.7-0.4,1-0.7c0.3-0.3,0.5-0.6,0.7-1s0.2-0.8,0.2-1.3c0-0.5-0.1-0.9-0.2-1.3c-0.2-0.4-0.4-0.8-0.7-1
				c-0.3-0.3-0.6-0.5-1-0.7s-0.8-0.3-1.2-0.3c-0.5,0-0.9,0.1-1.3,0.3c-0.4,0.2-0.7,0.4-1,0.7c-0.3,0.3-0.5,0.6-0.6,1
				C478.5,21,478.4,21.5,478.4,21.9z"/>
			<path class="st2" d="M524.1,26.6c0,2.3-0.3,4.3-0.8,6.1c-0.5,1.8-1.2,3.3-2.2,4.6s-2.1,2.2-3.5,2.9c-1.4,0.7-3,1-4.7,1
				c-2.1,0-3.9-0.3-5.5-1v-4.7c1.4,0.9,3,1.3,4.9,1.3c2,0,3.5-0.7,4.6-2c1.1-1.3,1.7-3.3,1.7-5.8l-0.1,0c-1.1,1.7-2.9,2.5-5.2,2.5
				c-1.1,0-2-0.2-2.9-0.6c-0.9-0.4-1.7-0.9-2.3-1.6c-0.7-0.7-1.2-1.5-1.5-2.5c-0.4-1-0.5-2-0.5-3.2c0-1.4,0.2-2.6,0.7-3.7
				c0.4-1.1,1.1-2.1,1.9-2.9c0.8-0.8,1.8-1.4,2.9-1.9s2.4-0.7,3.7-0.7c1.4,0,2.7,0.3,3.8,0.8s2.1,1.3,2.9,2.4c0.8,1,1.4,2.3,1.8,3.8
				S524.1,24.7,524.1,26.6z M518.4,23.6c0-0.7-0.1-1.3-0.3-1.9c-0.2-0.6-0.4-1.1-0.7-1.5c-0.3-0.4-0.7-0.8-1.1-1
				c-0.4-0.2-0.9-0.4-1.4-0.4c-0.5,0-0.9,0.1-1.4,0.3c-0.4,0.2-0.8,0.5-1.1,0.9s-0.5,0.8-0.7,1.4c-0.2,0.5-0.3,1.1-0.3,1.7
				c0,0.7,0.1,1.3,0.3,1.8s0.4,1,0.7,1.3c0.3,0.4,0.7,0.6,1.1,0.8c0.4,0.2,0.9,0.3,1.4,0.3c0.5,0,1-0.1,1.4-0.3
				c0.4-0.2,0.8-0.5,1.1-0.8s0.5-0.7,0.7-1.2S518.4,24.1,518.4,23.6z"/>
			<path class="st2" d="M546.6,18.2c-1.2,2.1-2.2,4-3.1,5.8c-0.9,1.8-1.7,3.6-2.4,5.4c-0.7,1.8-1.3,3.6-1.8,5.4
				c-0.5,1.8-0.9,3.8-1.2,5.9h-5.9c0.3-2,0.8-3.9,1.3-5.8s1.2-3.7,1.9-5.4c0.7-1.7,1.5-3.4,2.4-5.1c0.9-1.7,1.8-3.3,2.8-4.9h-12V15
				h18V18.2z"/>
			<path class="st2" d="M564.3,14.4v26.4h-5.7v-20c-0.3,0.3-0.7,0.5-1.1,0.8c-0.4,0.2-0.9,0.5-1.4,0.7c-0.5,0.2-1,0.4-1.5,0.5
				c-0.5,0.1-1,0.2-1.5,0.3v-4.8c1.5-0.4,2.9-1,4.2-1.7c1.3-0.7,2.5-1.4,3.5-2.2H564.3z"/>
			<path class="st2" d="M586.7,14.4v26.4H581v-20c-0.3,0.3-0.7,0.5-1.1,0.8c-0.4,0.2-0.9,0.5-1.4,0.7c-0.5,0.2-1,0.4-1.5,0.5
				c-0.5,0.1-1,0.2-1.5,0.3v-4.8c1.5-0.4,2.9-1,4.2-1.7c1.3-0.7,2.5-1.4,3.5-2.2H586.7z"/>
		</g>
		<g>
			<path class="st2" d="M347.8,60.6v-2.4c0.4,0.4,0.9,0.6,1.4,0.8c0.5,0.2,1,0.3,1.6,0.3c0.3,0,0.6,0,0.8-0.1
				c0.2-0.1,0.4-0.1,0.6-0.2c0.2-0.1,0.3-0.2,0.3-0.3s0.1-0.3,0.1-0.4c0-0.2-0.1-0.4-0.2-0.6s-0.3-0.3-0.5-0.5s-0.5-0.3-0.7-0.4
				c-0.3-0.1-0.6-0.3-0.9-0.4c-0.8-0.4-1.5-0.8-1.9-1.3s-0.6-1.1-0.6-1.8c0-0.6,0.1-1,0.3-1.5s0.5-0.7,0.9-1s0.8-0.5,1.4-0.6
				c0.5-0.1,1.1-0.2,1.6-0.2c0.6,0,1.1,0,1.5,0.1c0.4,0.1,0.8,0.2,1.2,0.3v2.3c-0.2-0.1-0.4-0.2-0.6-0.3c-0.2-0.1-0.4-0.2-0.7-0.2
				c-0.2-0.1-0.5-0.1-0.7-0.1c-0.2,0-0.4,0-0.6,0c-0.3,0-0.5,0-0.8,0.1c-0.2,0.1-0.4,0.1-0.6,0.2c-0.2,0.1-0.3,0.2-0.4,0.3
				c-0.1,0.1-0.1,0.3-0.1,0.4c0,0.2,0,0.3,0.1,0.5c0.1,0.1,0.2,0.3,0.4,0.4s0.4,0.3,0.6,0.4c0.3,0.1,0.5,0.3,0.9,0.4
				c0.4,0.2,0.8,0.4,1.2,0.6s0.6,0.4,0.9,0.7c0.2,0.3,0.4,0.6,0.6,0.9c0.1,0.3,0.2,0.7,0.2,1.2c0,0.6-0.1,1.1-0.3,1.5
				c-0.2,0.4-0.5,0.7-0.9,1c-0.4,0.3-0.9,0.4-1.4,0.5c-0.5,0.1-1.1,0.2-1.7,0.2c-0.6,0-1.2-0.1-1.7-0.2
				C348.6,60.9,348.2,60.8,347.8,60.6z"/>
			<path class="st2" d="M367,61h-2.7l-0.8-2.4h-3.9l-0.8,2.4h-2.6l3.9-10.8h2.9L367,61z M363,56.7l-1.2-3.6c-0.1-0.3-0.1-0.6-0.2-1
				h-0.1c0,0.3-0.1,0.6-0.2,0.9l-1.2,3.7H363z"/>
			<path class="st2" d="M375.1,52.1h-3.8v2.7h3.5v2h-3.5V61h-2.4V50.1h6.3V52.1z"/>
			<path class="st2" d="M386.5,61h-2.8l-1.7-2.8c-0.1-0.2-0.2-0.4-0.4-0.6c-0.1-0.2-0.2-0.3-0.4-0.4c-0.1-0.1-0.2-0.2-0.4-0.3
				c-0.1-0.1-0.3-0.1-0.4-0.1h-0.7V61h-2.4V50.1h3.9c2.6,0,3.9,1,3.9,2.9c0,0.4-0.1,0.7-0.2,1c-0.1,0.3-0.3,0.6-0.5,0.9
				s-0.5,0.5-0.8,0.7c-0.3,0.2-0.6,0.3-1,0.4v0c0.2,0.1,0.3,0.1,0.5,0.2c0.2,0.1,0.3,0.2,0.4,0.4c0.1,0.2,0.3,0.3,0.4,0.5
				c0.1,0.2,0.2,0.3,0.4,0.5L386.5,61z M379.8,52v3h1.1c0.5,0,0.9-0.2,1.3-0.5c0.3-0.3,0.5-0.7,0.5-1.1c0-0.9-0.6-1.4-1.7-1.4H379.8
				z"/>
			<path class="st2" d="M397.5,61h-2.7l-0.8-2.4h-3.9l-0.8,2.4h-2.6l3.9-10.8h2.9L397.5,61z M393.5,56.7l-1.2-3.6
				c-0.1-0.3-0.1-0.6-0.2-1h-0.1c0,0.3-0.1,0.6-0.2,0.9l-1.2,3.7H393.5z"/>
			<path class="st2" d="M409.1,61h-2.5l-4.5-6.8c-0.3-0.4-0.4-0.7-0.5-0.9h0c0,0.4,0.1,1,0.1,1.8v6h-2.3V50.1h2.6l4.3,6.6
				c0.2,0.3,0.4,0.6,0.5,0.9h0c0-0.3-0.1-0.7-0.1-1.5v-6h2.3V61z"/>
			<path class="st2" d="M412.1,61V50.1h3.9c1.2,0,2.1,0.2,2.8,0.7c0.7,0.4,1,1.1,1,1.9c0,0.6-0.2,1.1-0.6,1.5
				c-0.4,0.4-0.9,0.7-1.5,0.9v0c0.8,0.1,1.4,0.4,1.8,0.9s0.7,1.1,0.7,1.7c0,1-0.4,1.8-1.1,2.4c-0.7,0.6-1.7,0.9-2.9,0.9H412.1z
				 M414.5,51.9v2.6h1.1c0.5,0,0.9-0.1,1.2-0.4s0.4-0.6,0.4-1c0-0.8-0.6-1.2-1.8-1.2H414.5z M414.5,56.3v2.9h1.3
				c0.6,0,1-0.1,1.3-0.4c0.3-0.3,0.5-0.6,0.5-1.1c0-0.4-0.2-0.8-0.5-1c-0.3-0.2-0.8-0.4-1.3-0.4H414.5z"/>
			<path class="st2" d="M427.1,61.2c-1.6,0-2.8-0.5-3.8-1.5s-1.5-2.3-1.5-3.9c0-1.7,0.5-3.1,1.5-4.2c1-1.1,2.3-1.6,3.9-1.6
				c1.5,0,2.8,0.5,3.8,1.5s1.4,2.3,1.4,4c0,1.7-0.5,3.1-1.5,4.1C430,60.6,428.7,61.2,427.1,61.2z M427.2,52.1c-0.9,0-1.5,0.3-2,1
				c-0.5,0.6-0.8,1.5-0.8,2.6c0,1.1,0.3,1.9,0.8,2.5c0.5,0.6,1.2,0.9,2,0.9c0.8,0,1.5-0.3,2-0.9c0.5-0.6,0.7-1.4,0.7-2.5
				c0-1.1-0.2-2-0.7-2.6S428,52.1,427.2,52.1z"/>
			<path class="st2" d="M441.2,61h-6.5V50.1h2.4V59h4V61z"/>
			<path class="st2" d="M452,56.3c0,3.3-1.5,4.9-4.6,4.9c-2.9,0-4.4-1.6-4.4-4.8v-6.3h2.4v6.3c0,1.8,0.7,2.6,2.1,2.6
				c1.3,0,2-0.8,2-2.5v-6.4h2.4V56.3z"/>
			<path class="st2" d="M458.8,57.7h-4.1V56h4.1V57.7z"/>
			<path class="st2" d="M470.6,61h-3.1l-3.2-4.7c-0.1-0.1-0.2-0.3-0.3-0.6h0V61h-2.4V50.1h2.4v5.1h0c0.1-0.1,0.2-0.3,0.3-0.6l3-4.5
				h2.9l-3.8,5.2L470.6,61z"/>
			<path class="st2" d="M481.7,61H479l-0.8-2.4h-3.9l-0.8,2.4H471l3.9-10.8h2.9L481.7,61z M477.7,56.7l-1.2-3.6
				c-0.1-0.3-0.1-0.6-0.2-1h-0.1c0,0.3-0.1,0.6-0.2,0.9l-1.2,3.7H477.7z"/>
			<path class="st2" d="M492.6,61h-2.8l-1.7-2.8c-0.1-0.2-0.2-0.4-0.4-0.6c-0.1-0.2-0.2-0.3-0.4-0.4s-0.2-0.2-0.4-0.3
				c-0.1-0.1-0.3-0.1-0.4-0.1h-0.7V61h-2.4V50.1h3.9c2.6,0,3.9,1,3.9,2.9c0,0.4-0.1,0.7-0.2,1c-0.1,0.3-0.3,0.6-0.5,0.9
				c-0.2,0.3-0.5,0.5-0.8,0.7s-0.6,0.3-1,0.4v0c0.2,0.1,0.3,0.1,0.5,0.2c0.2,0.1,0.3,0.2,0.4,0.4s0.3,0.3,0.4,0.5
				c0.1,0.2,0.2,0.3,0.4,0.5L492.6,61z M485.9,52v3h1.1c0.5,0,0.9-0.2,1.3-0.5c0.3-0.3,0.5-0.7,0.5-1.1c0-0.9-0.6-1.4-1.7-1.4H485.9
				z"/>
			<path class="st2" d="M507.1,52.1H504V61h-2.4v-8.9h-3.1v-2h8.6V52.1z"/>
			<path class="st2" d="M513.3,60.6v-2.4c0.4,0.4,0.9,0.6,1.4,0.8s1,0.3,1.6,0.3c0.3,0,0.6,0,0.8-0.1c0.2-0.1,0.4-0.1,0.6-0.2
				c0.2-0.1,0.3-0.2,0.3-0.3c0.1-0.1,0.1-0.3,0.1-0.4c0-0.2-0.1-0.4-0.2-0.6c-0.1-0.2-0.3-0.3-0.5-0.5c-0.2-0.1-0.5-0.3-0.7-0.4
				c-0.3-0.1-0.6-0.3-0.9-0.4c-0.8-0.4-1.5-0.8-1.9-1.3c-0.4-0.5-0.6-1.1-0.6-1.8c0-0.6,0.1-1,0.3-1.5s0.5-0.7,0.9-1
				c0.4-0.3,0.8-0.5,1.4-0.6s1.1-0.2,1.6-0.2c0.6,0,1.1,0,1.5,0.1s0.8,0.2,1.2,0.3v2.3c-0.2-0.1-0.4-0.2-0.6-0.3
				c-0.2-0.1-0.4-0.2-0.7-0.2s-0.5-0.1-0.7-0.1c-0.2,0-0.4,0-0.6,0c-0.3,0-0.5,0-0.8,0.1c-0.2,0.1-0.4,0.1-0.6,0.2s-0.3,0.2-0.4,0.3
				c-0.1,0.1-0.1,0.3-0.1,0.4c0,0.2,0,0.3,0.1,0.5c0.1,0.1,0.2,0.3,0.4,0.4c0.2,0.1,0.4,0.3,0.6,0.4s0.5,0.3,0.9,0.4
				c0.4,0.2,0.8,0.4,1.2,0.6c0.3,0.2,0.6,0.4,0.9,0.7s0.4,0.6,0.6,0.9c0.1,0.3,0.2,0.7,0.2,1.2c0,0.6-0.1,1.1-0.3,1.5
				c-0.2,0.4-0.5,0.7-0.9,1c-0.4,0.3-0.9,0.4-1.4,0.5c-0.5,0.1-1.1,0.2-1.7,0.2c-0.6,0-1.2-0.1-1.7-0.2
				C514.2,60.9,513.7,60.8,513.3,60.6z"/>
			<path class="st2" d="M532.5,61h-2.7l-0.8-2.4h-3.9l-0.8,2.4h-2.6l3.9-10.8h2.9L532.5,61z M528.5,56.7l-1.2-3.6
				c-0.1-0.3-0.1-0.6-0.2-1h-0.1c0,0.3-0.1,0.6-0.2,0.9l-1.2,3.7H528.5z"/>
			<path class="st2" d="M544.1,61h-2.5l-4.5-6.8c-0.3-0.4-0.4-0.7-0.5-0.9h0c0,0.4,0.1,1,0.1,1.8v6h-2.3V50.1h2.6l4.3,6.6
				c0.2,0.3,0.4,0.6,0.5,0.9h0c0-0.3-0.1-0.7-0.1-1.5v-6h2.3V61z"/>
			<path class="st2" d="M556.6,61H554l-0.8-2.4h-3.9l-0.8,2.4h-2.6l3.9-10.8h2.9L556.6,61z M552.6,56.7l-1.2-3.6
				c-0.1-0.3-0.1-0.6-0.2-1h-0.1c0,0.3-0.1,0.6-0.2,0.9l-1.2,3.7H552.6z"/>
			<path class="st2" d="M566.7,50.1l-3.5,7V61h-2.4v-3.8l-3.4-7h2.8l1.7,4c0,0.1,0.1,0.4,0.2,0.9h0c0.1-0.4,0.1-0.6,0.2-0.9l1.8-4.1
				H566.7z"/>
			<path class="st2" d="M570.4,61.2H568v-11h2.4V61.2z"/>
			<path class="st2" d="M496.9,61.2h-2.4v-11h2.4V61.2z"/>
			<path class="st2" d="M570.4,49H568v-2h2.4V49z"/>
		</g>
		<g>
			<linearGradient id="SVGID_1_" gradientUnits="userSpaceOnUse" x1="304.9992" y1="16.4717" x2="304.9992" y2="39.5592">
				<stop  offset="0" style="stop-color:#0FAB4D"/>
				<stop  offset="1" style="stop-color:#038948"/>
			</linearGradient>
			<path class="st3" d="M305,16.5c-6.4,0-11.6,5.2-11.6,11.5c0,2.5,0.8,4.9,2.2,6.8l-1.5,4.3l4.5-1.4c1.8,1.2,4,1.9,6.4,1.9
				c6.4,0,11.6-5.2,11.6-11.5C316.6,21.6,311.4,16.5,305,16.5L305,16.5z"/>
			<g>
				<path class="st4" d="M318.1,27.9c0,7.2-5.9,13.1-13.2,13.1c-2.3,0-4.5-0.6-6.4-1.6l-7.3,2.3l2.4-7c-1.2-2-1.9-4.3-1.9-6.8
					c0-7.2,5.9-13.1,13.2-13.1C312.2,14.8,318.1,20.7,318.1,27.9L318.1,27.9z M304.9,16.9c-6.1,0-11.1,4.9-11.1,11
					c0,2.4,0.8,4.6,2.1,6.4l-1.4,4.1l4.3-1.4c1.7,1.1,3.8,1.8,6.1,1.8c6.1,0,11.1-4.9,11.1-11C316,21.9,311,16.9,304.9,16.9
					L304.9,16.9z M311.6,30.9c-0.1-0.1-0.3-0.2-0.6-0.4c-0.3-0.2-1.9-0.9-2.2-1c-0.3-0.1-0.5-0.2-0.7,0.2c-0.2,0.3-0.8,1-1,1.3
					c-0.2,0.2-0.4,0.2-0.7,0.1c-0.3-0.2-1.4-0.5-2.6-1.6c-1-0.9-1.6-1.9-1.8-2.2c-0.2-0.3,0-0.5,0.1-0.7c0.1-0.1,0.3-0.4,0.5-0.6
					c0.2-0.2,0.2-0.3,0.3-0.5c0.1-0.2,0.1-0.4,0-0.6c-0.1-0.2-0.7-1.7-1-2.4c-0.3-0.6-0.5-0.6-0.7-0.6c-0.2,0-0.5,0.1-0.5,0.1
					s-0.6,0.1-0.9,0.4c-0.3,0.3-1.1,1.1-1.1,2.7c0,1.6,1.2,3.1,1.3,3.3c0.2,0.2,2.2,3.6,5.5,4.8c3.3,1.3,3.3,0.9,3.9,0.8
					c0.6-0.1,1.9-0.8,2.2-1.5C311.7,31.7,311.7,31.1,311.6,30.9L311.6,30.9z M311.6,30.9"/>
			</g>
		</g>
	</g>
</g>
</svg>
