<?xml version="1.0" encoding="utf-8"?>
<!-- Generator: Adobe Illustrator 25.4.1, SVG Export Plug-In . SVG Version: 6.00 Build 0)  -->
<svg version="1.1" id="Layer_1" xmlns="http://www.w3.org/2000/svg" xmlns:xlink="http://www.w3.org/1999/xlink" x="0px" y="0px"
	 viewBox="0 0 600 38" style="enable-background:new 0 0 600 38;" xml:space="preserve">
<style type="text/css">
	.st0{fill:#EB2127;}
	.st1{fill:#FFFFFF;}
	.st2{fill:#231F20;}
	.st3{fill:none;}
	.st4{font-family:'Gadugi-Bold';}
	.st5{font-size:19.7641px;}
	.st6{fill-rule:evenodd;clip-rule:evenodd;fill:url(#SVGID_1_);}
	.st7{fill-rule:evenodd;clip-rule:evenodd;fill:#FFFFFF;}
	.st8{fill:url(#SVGID_00000101792132648305868510000009072284523414299563_);}
	.st9{fill:#293C8F;}
	.st10{fill:#E92429;}
</style>
<g>
	<g>
		<path class="st0" d="M268.9,33H152.1c-6.9,0-12.5-5.6-12.5-12.5V9.3h141.9v11.2C281.5,27.4,275.9,33,268.9,33z"/>
		<g>
			<g>
				<path class="st1" d="M149,14.8h2.4c1.6,0,2.7,0.1,3.3,0.2c0.6,0.1,1,0.5,1.4,1s0.5,1.4,0.5,2.6c0,1.1-0.1,1.8-0.4,2.2
					c-0.3,0.4-0.8,0.6-1.5,0.7c0.7,0.2,1.1,0.4,1.4,0.7c0.2,0.3,0.4,0.6,0.4,0.8c0.1,0.3,0.1,0.9,0.1,2.1v3.7h-3.2v-4.7
					c0-0.8-0.1-1.2-0.2-1.4c-0.1-0.2-0.4-0.3-0.9-0.3v6.3H149V14.8z M152.4,17.2v3.1c0.4,0,0.7-0.1,0.8-0.2c0.2-0.1,0.2-0.5,0.2-1.1
					v-0.8c0-0.4-0.1-0.7-0.2-0.9S152.8,17.2,152.4,17.2z"/>
				<path class="st2" d="M156.7,28.9h-3.4v-4.8c0-0.9-0.1-1.2-0.1-1.3c-0.1-0.1-0.2-0.2-0.6-0.2v6.3h-3.7V14.6h2.5
					c1.6,0,2.7,0.1,3.3,0.2c0.6,0.1,1.1,0.5,1.5,1.1c0.4,0.6,0.6,1.5,0.6,2.7c0,1.1-0.1,1.9-0.4,2.3c-0.2,0.3-0.6,0.5-1.1,0.6
					c0.4,0.2,0.7,0.4,0.9,0.6c0.2,0.3,0.4,0.6,0.5,0.9c0.1,0.3,0.1,1,0.1,2.1V28.9z M153.6,28.7h2.9v-3.6c0-1.1,0-1.8-0.1-2.1
					c-0.1-0.2-0.2-0.5-0.4-0.8c-0.2-0.3-0.6-0.5-1.3-0.7l0-0.2c0.7-0.1,1.2-0.3,1.4-0.6c0.2-0.4,0.4-1.1,0.4-2.1
					c0-1.2-0.2-2-0.5-2.5c-0.3-0.5-0.8-0.8-1.3-1c-0.6-0.1-1.6-0.2-3.2-0.2h-2.3v13.8h3.2v-6.3h0.1c0.5,0,0.8,0.1,1,0.3
					c0.1,0.1,0.2,0.4,0.2,1.5V28.7z M152.4,20.4h-0.1v-3.4h0.1c0.4,0,0.7,0.1,0.9,0.2c0.2,0.2,0.3,0.5,0.3,1V19
					c0,0.7-0.1,1.1-0.3,1.2C153.1,20.4,152.8,20.4,152.4,20.4z M152.5,17.3v2.9c0.4,0,0.5-0.1,0.6-0.1c0.1,0,0.2-0.2,0.2-1v-0.8
					c0-0.5-0.1-0.7-0.2-0.8C153,17.4,152.8,17.3,152.5,17.3z"/>
			</g>
			<g>
				<path class="st1" d="M164.3,14.8l1.9,14h-3.5l-0.2-2.5h-1.2l-0.2,2.5h-3.5l1.7-14H164.3z M162.5,23.8c-0.2-1.6-0.3-3.6-0.5-5.9
					c-0.3,2.7-0.6,4.7-0.7,5.9H162.5z"/>
				<path class="st2" d="M166.4,28.9h-3.7l-0.2-2.5h-1l-0.2,2.5h-3.8l0-0.1l1.7-14.2h5.1l0,0.1L166.4,28.9z M162.9,28.7h3.2
					l-1.9-13.8h-4.7l-1.7,13.8h3.3l0.2-2.5h1.4L162.9,28.7z M162.7,23.9h-1.4l0-0.1c0.1-1.2,0.3-3.2,0.7-5.9l0.2,0
					c0.2,2.3,0.3,4.3,0.5,5.9L162.7,23.9z M161.5,23.7h0.9c-0.1-1.3-0.3-2.8-0.4-4.5C161.7,21.1,161.6,22.6,161.5,23.7z"/>
			</g>
			<g>
				<path class="st1" d="M177.9,14.8v14h-3l0-9.5l-1.2,9.5h-2.1l-1.2-9.3l0,9.3h-3v-14h4.4c0.1,0.8,0.3,1.8,0.4,3l0.5,3.6l0.8-6.6
					H177.9z"/>
				<path class="st2" d="M178,28.9h-3.2l0-7.6l-0.9,7.6h-2.3l-1-7.5l0,7.5h-3.2V14.6h4.6l0,0.1c0.1,0.8,0.3,1.8,0.4,3l0.4,2.6
					l0.7-5.7h4.7V28.9z M175,28.7h2.7V14.9h-4.2l-0.8,6.4l-0.2,0l-0.5-3.6c-0.1-1.1-0.3-2.1-0.4-2.9h-4.2v13.8h2.7l0-9.1l0.2,0
					l1.2,9.2h1.9l1.2-9.4l0.2,0L175,28.7z"/>
			</g>
			<g>
				<path class="st1" d="M185.6,14.8l1.9,14h-3.5l-0.2-2.5h-1.2l-0.2,2.5H179l1.7-14H185.6z M183.8,23.8c-0.2-1.6-0.3-3.6-0.5-5.9
					c-0.3,2.7-0.6,4.7-0.7,5.9H183.8z"/>
				<path class="st2" d="M187.7,28.9H184l-0.2-2.5h-1l-0.2,2.5h-3.8l0-0.1l1.7-14.2h5.1l0,0.1L187.7,28.9z M184.2,28.7h3.2
					l-1.9-13.8h-4.7l-1.7,13.8h3.3l0.2-2.5h1.4L184.2,28.7z M184,23.9h-1.4l0-0.1c0.1-1.2,0.3-3.2,0.7-5.9l0.2,0
					c0.2,2.3,0.3,4.3,0.5,5.9L184,23.9z M182.8,23.7h0.9c-0.1-1.3-0.3-2.8-0.4-4.5C183,21.1,182.9,22.6,182.8,23.7z"/>
			</g>
			<g>
				<path class="st1" d="M194.8,14.8v2.8l-2.5,8.4h2.5v2.8h-6.3v-2l2.6-9.2h-2.3v-2.8H194.8z"/>
				<path class="st2" d="M194.9,28.9h-6.5l0-2.2l2.6-9h-2.3v-3.1h6.2l0,3l-2.5,8.3h2.5V28.9z M188.7,28.7h6v-2.6h-2.6l2.6-8.6v-2.7
					H189v2.6h2.4l-2.7,9.3V28.7z"/>
			</g>
			<g>
				<path class="st1" d="M202.4,14.8l1.9,14h-3.5l-0.2-2.5h-1.2l-0.2,2.5h-3.5l1.7-14H202.4z M200.6,23.8c-0.2-1.6-0.3-3.6-0.5-5.9
					c-0.3,2.7-0.6,4.7-0.7,5.9H200.6z"/>
				<path class="st2" d="M204.5,28.9h-3.7l-0.2-2.5h-1l-0.2,2.5h-3.8l0-0.1l1.7-14.2h5.1l0,0.1L204.5,28.9z M201,28.7h3.2l-1.9-13.8
					h-4.7l-1.7,13.8h3.3l0.2-2.5h1.4L201,28.7z M200.8,23.9h-1.4l0-0.1c0.1-1.2,0.3-3.2,0.7-5.9l0.2,0c0.2,2.3,0.3,4.3,0.5,5.9
					L200.8,23.9z M199.6,23.7h0.9c-0.1-1.3-0.3-2.8-0.4-4.5C199.8,21.1,199.7,22.6,199.6,23.7z"/>
			</g>
			<g>
				<path class="st1" d="M213.1,14.8v14h-3l-1.8-6.4v6.4h-2.8v-14h2.8l1.9,6.3v-6.3H213.1z"/>
				<path class="st2" d="M213.2,28.9H210l-1.5-5.6v5.6h-3.1V14.6h3.1l1.7,5.6v-5.6h3.1V28.9z M210.2,28.7h2.8V14.9h-2.6v6.2l-0.2,0
					l-1.9-6.2h-2.6v13.8h2.6v-6.3l0.2,0L210.2,28.7z"/>
			</g>
			<g>
				<path class="st1" d="M225.6,19h-3.2v-1c0-0.5,0-0.8-0.1-0.9s-0.2-0.2-0.4-0.2c-0.2,0-0.4,0.1-0.5,0.3c-0.1,0.2-0.2,0.5-0.2,0.8
					c0,0.5,0.1,0.8,0.2,1.1c0.1,0.2,0.4,0.5,1,0.9c1.5,1,2.5,1.8,2.9,2.4c0.4,0.6,0.6,1.6,0.6,3c0,1-0.1,1.7-0.3,2.2
					c-0.2,0.5-0.6,0.9-1.3,1.2c-0.6,0.3-1.4,0.5-2.2,0.5c-0.9,0-1.7-0.2-2.3-0.6s-1.1-0.8-1.3-1.4c-0.2-0.6-0.3-1.4-0.3-2.4v-0.9
					h3.2v1.7c0,0.5,0,0.9,0.1,1s0.2,0.2,0.5,0.2s0.4-0.1,0.5-0.3c0.1-0.2,0.2-0.5,0.2-0.9c0-0.8-0.1-1.4-0.3-1.6
					c-0.2-0.3-0.7-0.7-1.6-1.3c-0.8-0.6-1.4-1-1.7-1.3c-0.3-0.3-0.5-0.6-0.7-1.1c-0.2-0.5-0.3-1.1-0.3-1.8c0-1.1,0.1-1.9,0.4-2.4
					c0.3-0.5,0.7-0.9,1.2-1.2c0.6-0.3,1.3-0.4,2.1-0.4c0.9,0,1.6,0.2,2.3,0.5s1,0.7,1.2,1.2c0.2,0.5,0.3,1.3,0.3,2.4V19z"/>
				<path class="st2" d="M222.1,29.2c-0.9,0-1.7-0.2-2.4-0.6c-0.7-0.4-1.1-0.9-1.3-1.5c-0.2-0.6-0.3-1.4-0.3-2.5v-1h3.4v1.8
					c0,0.6,0.1,0.9,0.1,1c0.1,0.1,0.2,0.2,0.4,0.2c0.2,0,0.3-0.1,0.4-0.2c0.1-0.2,0.1-0.4,0.1-0.8c0-1-0.2-1.4-0.3-1.5
					c-0.2-0.2-0.7-0.7-1.6-1.3c-0.9-0.6-1.4-1-1.7-1.3c-0.3-0.3-0.5-0.7-0.7-1.2c-0.2-0.5-0.3-1.1-0.3-1.9c0-1.1,0.1-1.9,0.4-2.4
					c0.3-0.5,0.7-0.9,1.3-1.2c0.6-0.3,1.3-0.4,2.1-0.4c0.9,0,1.7,0.2,2.3,0.5c0.6,0.3,1.1,0.7,1.3,1.2c0.2,0.5,0.3,1.3,0.3,2.4v0.7
					h-3.4V18c0-0.6-0.1-0.8-0.1-0.9c0-0.1-0.1-0.1-0.3-0.1c-0.2,0-0.3,0.1-0.4,0.2c-0.1,0.2-0.1,0.4-0.1,0.8c0,0.4,0.1,0.8,0.2,1
					c0.1,0.2,0.4,0.5,0.9,0.8c1.5,1,2.5,1.8,2.9,2.4c0.4,0.6,0.6,1.7,0.6,3.1c0,1-0.1,1.8-0.3,2.3c-0.2,0.5-0.7,0.9-1.3,1.3
					C223.7,29.1,223,29.2,222.1,29.2z M218.4,23.9v0.8c0,1,0.1,1.8,0.3,2.4c0.2,0.5,0.6,1,1.2,1.3c0.6,0.4,1.4,0.5,2.3,0.5
					c0.8,0,1.5-0.2,2.1-0.5c0.6-0.3,1-0.7,1.2-1.1c0.2-0.5,0.3-1.2,0.3-2.2c0-1.3-0.2-2.3-0.6-2.9c-0.4-0.6-1.3-1.4-2.8-2.3
					c-0.6-0.4-0.9-0.6-1-0.9c-0.1-0.3-0.2-0.6-0.2-1.1c0-0.4,0.1-0.7,0.2-0.9c0.1-0.2,0.3-0.3,0.6-0.3c0.3,0,0.4,0.1,0.5,0.3
					c0.1,0.1,0.1,0.3,0.1,1v0.9h2.9v-0.4c0-1.1-0.1-1.9-0.3-2.3c-0.2-0.4-0.6-0.8-1.2-1.1c-0.6-0.3-1.3-0.4-2.2-0.4
					c-0.8,0-1.5,0.1-2,0.4c-0.5,0.3-0.9,0.6-1.2,1.1c-0.2,0.5-0.4,1.3-0.4,2.3c0,0.7,0.1,1.3,0.3,1.8c0.2,0.5,0.4,0.8,0.7,1.1
					c0.3,0.3,0.8,0.7,1.7,1.3c0.9,0.6,1.4,1,1.6,1.3c0.2,0.3,0.3,0.8,0.3,1.7c0,0.4-0.1,0.7-0.2,0.9c-0.1,0.2-0.3,0.3-0.6,0.3
					c-0.3,0-0.5-0.1-0.6-0.3c-0.1-0.2-0.2-0.5-0.2-1.1v-1.6H218.4z"/>
			</g>
			<g>
				<path class="st1" d="M235.3,23c0,1.4,0,2.4-0.1,3c-0.1,0.6-0.3,1.1-0.6,1.6c-0.3,0.5-0.8,0.9-1.3,1.1c-0.6,0.3-1.2,0.4-1.9,0.4
					c-0.7,0-1.3-0.1-1.9-0.4c-0.6-0.2-1-0.6-1.3-1.1c-0.3-0.5-0.5-1-0.6-1.6c-0.1-0.6-0.1-1.6-0.1-3v-2.4c0-1.4,0-2.4,0.1-3
					c0.1-0.6,0.3-1.1,0.6-1.6c0.3-0.5,0.8-0.9,1.3-1.1c0.6-0.3,1.2-0.4,1.9-0.4c0.7,0,1.3,0.1,1.9,0.4c0.6,0.2,1,0.6,1.3,1.1
					c0.3,0.5,0.5,1,0.6,1.6c0.1,0.6,0.1,1.6,0.1,3V23z M230.6,12.1v2.3h-2.1v-2.3H230.6z M231.9,18.4c0-0.7,0-1.1-0.1-1.3
					c-0.1-0.2-0.2-0.3-0.4-0.3c-0.2,0-0.3,0.1-0.4,0.2c-0.1,0.1-0.1,0.6-0.1,1.3v6.6c0,0.8,0,1.3,0.1,1.5c0.1,0.2,0.2,0.3,0.4,0.3
					c0.2,0,0.4-0.1,0.4-0.3c0.1-0.2,0.1-0.7,0.1-1.6V18.4z M234.2,12.1v2.3H232v-2.3H234.2z"/>
				<path class="st2" d="M231.3,29.2c-0.7,0-1.4-0.1-1.9-0.4c-0.6-0.3-1-0.6-1.4-1.1c-0.3-0.5-0.6-1.1-0.6-1.7
					c-0.1-0.6-0.1-1.6-0.1-3.1v-2.4c0-1.4,0-2.4,0.1-3c0.1-0.6,0.3-1.2,0.6-1.7c0.3-0.5,0.8-0.9,1.4-1.2c0.3-0.1,0.6-0.2,0.9-0.3
					h-1.9V12h2.4v2.4c0.4,0,0.8,0,1.2,0V12h2.4v2.5h-1.9c0.3,0.1,0.6,0.2,0.9,0.3c0.6,0.3,1,0.6,1.4,1.1c0.3,0.5,0.6,1.1,0.6,1.7
					c0.1,0.6,0.1,1.6,0.1,3.1V23c0,1.4,0,2.4-0.1,3c-0.1,0.6-0.3,1.2-0.6,1.7c-0.3,0.5-0.8,0.9-1.4,1.2
					C232.8,29.1,232.1,29.2,231.3,29.2z M231.3,14.6c-0.7,0-1.4,0.1-1.9,0.4c-0.5,0.2-1,0.6-1.3,1.1c-0.3,0.5-0.5,1-0.6,1.6
					c-0.1,0.6-0.1,1.6-0.1,3V23c0,1.4,0,2.4,0.1,3c0.1,0.6,0.3,1.1,0.6,1.5c0.3,0.5,0.8,0.8,1.3,1.1c0.5,0.2,1.2,0.4,1.8,0.4
					c0.7,0,1.4-0.1,1.9-0.4c0.5-0.2,1-0.6,1.3-1.1c0.3-0.5,0.5-1,0.6-1.6c0.1-0.6,0.1-1.6,0.1-3v-2.4c0-1.4,0-2.5-0.1-3
					c-0.1-0.6-0.3-1.1-0.6-1.5c-0.3-0.5-0.8-0.8-1.3-1.1C232.6,14.7,232,14.6,231.3,14.6z M232.2,14.2h1.9v-2h-1.9V14.2z
					 M228.6,14.2h1.9v-2h-1.9V14.2z M231.3,26.9c-0.4,0-0.5-0.2-0.6-0.4c-0.1-0.2-0.1-0.7-0.1-1.5v-6.6c0-1,0.1-1.3,0.2-1.4
					c0.1-0.2,0.3-0.3,0.5-0.3c0.3,0,0.4,0.1,0.5,0.4c0.1,0.2,0.1,0.6,0.1,1.3v6.5c0,0.8,0,1.4-0.1,1.6
					C231.8,26.7,231.6,26.9,231.3,26.9z M231.4,17c-0.1,0-0.2,0.1-0.3,0.2c0,0.1-0.1,0.3-0.1,1.2v6.6c0,1,0,1.3,0.1,1.5
					c0,0.1,0.1,0.2,0.3,0.2c0.2,0,0.3-0.1,0.3-0.2c0.1-0.2,0.1-0.7,0.1-1.5v-6.5c0-0.8-0.1-1.1-0.1-1.2C231.6,17,231.5,17,231.4,17z
					"/>
			</g>
			<g>
				<path class="st1" d="M244.7,14.8v14h-3l-1.8-6.4v6.4h-2.8v-14h2.8l1.9,6.3v-6.3H244.7z"/>
				<path class="st2" d="M244.8,28.9h-3.2l-1.5-5.6v5.6h-3.1V14.6h3.1l1.7,5.6v-5.6h3.1V28.9z M241.8,28.7h2.8V14.9h-2.6v6.2l-0.2,0
					l-1.9-6.2h-2.6v13.8h2.6v-6.3l0.2,0L241.8,28.7z"/>
			</g>
			<g>
				<path class="st1" d="M257.1,14.8v14h-3l0-9.5l-1.2,9.5h-2.1l-1.2-9.3l0,9.3h-3v-14h4.4c0.1,0.8,0.3,1.8,0.4,3l0.5,3.6l0.8-6.6
					H257.1z"/>
				<path class="st2" d="M257.2,28.9H254l0-7.6l-0.9,7.6h-2.3l-1-7.5l0,7.5h-3.2V14.6h4.6l0,0.1c0.1,0.8,0.3,1.8,0.4,3l0.4,2.6
					l0.7-5.7h4.7V28.9z M254.2,28.7h2.7V14.9h-4.2l-0.8,6.4l-0.2,0l-0.5-3.6c-0.1-1.1-0.3-2.1-0.4-2.9h-4.2v13.8h2.7l0-9.1l0.2,0
					l1.2,9.2h1.9l1.2-9.4l0.2,0L254.2,28.7z"/>
			</g>
			<g>
				<path class="st1" d="M258.9,14.8h5.7v2.8h-2.3v2.7h2.1v2.7h-2.1V26h2.5v2.8h-5.9V14.8z"/>
				<path class="st2" d="M265,28.9h-6.1V14.6h5.9v3.1h-2.3v2.4h2.1V23h-2.1v2.8h2.5V28.9z M259.1,28.7h5.6v-2.6h-2.5v-3.3h2.1v-2.4
					h-2.1v-2.9h2.3v-2.6h-5.4V28.7z"/>
			</g>
			<g>
				<path class="st1" d="M272,14.8v2.8l-2.5,8.4h2.5v2.8h-6.3v-2l2.6-9.2h-2.3v-2.8H272z"/>
				<path class="st2" d="M272.2,28.9h-6.5l0-2.2l2.6-9H266v-3.1h6.2l0,3l-2.5,8.3h2.5V28.9z M265.9,28.7h6v-2.6h-2.6l2.6-8.6v-2.7
					h-5.7v2.6h2.4l-2.7,9.3V28.7z"/>
			</g>
		</g>
	</g>
	<g>
		<rect x="296.7" y="9.2" class="st3" width="163.8" height="18.7"/>
		<text transform="matrix(1 0 0 1 306.7754 23.857)" class="st1 st4 st5">0542 318 9711</text>
		<g>
			<path class="st1" d="M318.9,34.5v-1.3c0.2,0.2,0.5,0.3,0.8,0.4s0.6,0.1,0.8,0.1c0.2,0,0.3,0,0.4,0s0.2-0.1,0.3-0.1
				c0.1-0.1,0.1-0.1,0.2-0.2c0-0.1,0.1-0.1,0.1-0.2c0-0.1,0-0.2-0.1-0.3c-0.1-0.1-0.2-0.2-0.3-0.2s-0.2-0.1-0.4-0.2
				s-0.3-0.1-0.5-0.2c-0.5-0.2-0.8-0.4-1-0.7c-0.2-0.3-0.3-0.6-0.3-1c0-0.3,0.1-0.6,0.2-0.8c0.1-0.2,0.3-0.4,0.5-0.5
				c0.2-0.1,0.5-0.2,0.7-0.3c0.3-0.1,0.6-0.1,0.9-0.1c0.3,0,0.6,0,0.8,0.1c0.2,0,0.4,0.1,0.6,0.2v1.2c-0.1-0.1-0.2-0.1-0.3-0.2
				s-0.2-0.1-0.4-0.1c-0.1,0-0.2-0.1-0.4-0.1c-0.1,0-0.2,0-0.3,0c-0.1,0-0.3,0-0.4,0c-0.1,0-0.2,0.1-0.3,0.1
				c-0.1,0.1-0.1,0.1-0.2,0.2s-0.1,0.2-0.1,0.2c0,0.1,0,0.2,0.1,0.3s0.1,0.1,0.2,0.2c0.1,0.1,0.2,0.1,0.3,0.2s0.3,0.1,0.5,0.2
				c0.2,0.1,0.4,0.2,0.6,0.3s0.3,0.2,0.5,0.4c0.1,0.1,0.2,0.3,0.3,0.5c0.1,0.2,0.1,0.4,0.1,0.6c0,0.3-0.1,0.6-0.2,0.8
				c-0.1,0.2-0.3,0.4-0.5,0.5c-0.2,0.1-0.5,0.2-0.7,0.3s-0.6,0.1-0.9,0.1c-0.3,0-0.6,0-0.9-0.1C319.3,34.7,319.1,34.6,318.9,34.5z"
				/>
			<path class="st1" d="M329.2,34.7h-1.4l-0.4-1.3h-2.1l-0.4,1.3h-1.4l2.1-5.8h1.6L329.2,34.7z M327,32.4l-0.6-2
				c0-0.1-0.1-0.3-0.1-0.5h0c0,0.2,0,0.3-0.1,0.5l-0.6,2H327z"/>
			<path class="st1" d="M333.5,29.9h-2.1v1.4h1.9v1.1h-1.9v2.3h-1.3v-5.8h3.4V29.9z"/>
			<path class="st1" d="M339.6,34.7h-1.5l-0.9-1.5c-0.1-0.1-0.1-0.2-0.2-0.3c-0.1-0.1-0.1-0.2-0.2-0.2c-0.1-0.1-0.1-0.1-0.2-0.1
				c-0.1,0-0.1-0.1-0.2-0.1h-0.4v2.2h-1.3v-5.8h2.1c1.4,0,2.1,0.5,2.1,1.6c0,0.2,0,0.4-0.1,0.6c-0.1,0.2-0.1,0.3-0.3,0.5
				s-0.3,0.3-0.4,0.4c-0.2,0.1-0.3,0.2-0.5,0.2v0c0.1,0,0.2,0.1,0.3,0.1c0.1,0.1,0.2,0.1,0.2,0.2c0.1,0.1,0.1,0.2,0.2,0.3
				c0.1,0.1,0.1,0.2,0.2,0.3L339.6,34.7z M336.1,29.9v1.6h0.6c0.3,0,0.5-0.1,0.7-0.2c0.2-0.2,0.3-0.4,0.3-0.6c0-0.5-0.3-0.8-0.9-0.8
				H336.1z"/>
			<path class="st1" d="M345.6,34.7h-1.4l-0.4-1.3h-2.1l-0.4,1.3h-1.4l2.1-5.8h1.6L345.6,34.7z M343.4,32.4l-0.6-2
				c0-0.1-0.1-0.3-0.1-0.5h0c0,0.2,0,0.3-0.1,0.5l-0.6,2H343.4z"/>
			<path class="st1" d="M351.8,34.7h-1.3l-2.4-3.7c-0.1-0.2-0.2-0.4-0.3-0.5h0c0,0.2,0,0.5,0,0.9v3.2h-1.2v-5.8h1.4l2.3,3.5
				c0.1,0.2,0.2,0.3,0.3,0.5h0c0-0.1,0-0.4,0-0.8v-3.2h1.2V34.7z"/>
			<path class="st1" d="M353.4,34.7v-5.8h2.1c0.6,0,1.1,0.1,1.5,0.4c0.3,0.2,0.5,0.6,0.5,1c0,0.3-0.1,0.6-0.3,0.8
				c-0.2,0.2-0.5,0.4-0.8,0.5v0c0.4,0.1,0.7,0.2,1,0.5c0.2,0.3,0.4,0.6,0.4,0.9c0,0.5-0.2,1-0.6,1.3s-0.9,0.5-1.6,0.5H353.4z
				 M354.7,29.8v1.4h0.6c0.3,0,0.5-0.1,0.6-0.2s0.2-0.3,0.2-0.5c0-0.4-0.3-0.6-1-0.6H354.7z M354.7,32.2v1.5h0.7
				c0.3,0,0.5-0.1,0.7-0.2c0.2-0.1,0.3-0.3,0.3-0.6c0-0.2-0.1-0.4-0.3-0.5s-0.4-0.2-0.7-0.2H354.7z"/>
			<path class="st1" d="M361.4,34.8c-0.8,0-1.5-0.3-2-0.8c-0.5-0.5-0.8-1.2-0.8-2.1c0-0.9,0.3-1.7,0.8-2.2s1.2-0.9,2.1-0.9
				c0.8,0,1.5,0.3,2,0.8c0.5,0.5,0.8,1.3,0.8,2.1c0,0.9-0.3,1.6-0.8,2.2C363,34.5,362.3,34.8,361.4,34.8z M361.5,29.9
				c-0.5,0-0.8,0.2-1.1,0.5c-0.3,0.3-0.4,0.8-0.4,1.4c0,0.6,0.1,1,0.4,1.4s0.6,0.5,1.1,0.5c0.5,0,0.8-0.2,1.1-0.5
				c0.3-0.3,0.4-0.8,0.4-1.4c0-0.6-0.1-1.1-0.4-1.4S361.9,29.9,361.5,29.9z"/>
			<path class="st1" d="M369,34.7h-3.5v-5.8h1.3v4.7h2.2V34.7z"/>
			<path class="st1" d="M374.8,32.2c0,1.7-0.8,2.6-2.4,2.6c-1.6,0-2.4-0.9-2.4-2.6v-3.4h1.3v3.4c0,0.9,0.4,1.4,1.1,1.4
				c0.7,0,1.1-0.5,1.1-1.4v-3.4h1.3V32.2z"/>
			<path class="st1" d="M378.4,32.9h-2.2V32h2.2V32.9z"/>
			<path class="st1" d="M384.7,34.7h-1.7l-1.7-2.5c0,0-0.1-0.2-0.2-0.3h0v2.8h-1.3v-5.8h1.3v2.7h0c0-0.1,0.1-0.2,0.2-0.3l1.6-2.4
				h1.6l-2,2.8L384.7,34.7z"/>
			<path class="st1" d="M390.7,34.7h-1.4l-0.4-1.3h-2.1l-0.4,1.3h-1.4l2.1-5.8h1.6L390.7,34.7z M388.5,32.4l-0.6-2
				c0-0.1-0.1-0.3-0.1-0.5h0c0,0.2,0,0.3-0.1,0.5l-0.6,2H388.5z"/>
			<path class="st1" d="M396.5,34.7H395l-0.9-1.5c-0.1-0.1-0.1-0.2-0.2-0.3c-0.1-0.1-0.1-0.2-0.2-0.2c-0.1-0.1-0.1-0.1-0.2-0.1
				c-0.1,0-0.1-0.1-0.2-0.1H393v2.2h-1.3v-5.8h2.1c1.4,0,2.1,0.5,2.1,1.6c0,0.2,0,0.4-0.1,0.6c-0.1,0.2-0.1,0.3-0.3,0.5
				s-0.3,0.3-0.4,0.4c-0.2,0.1-0.3,0.2-0.5,0.2v0c0.1,0,0.2,0.1,0.3,0.1c0.1,0.1,0.2,0.1,0.2,0.2c0.1,0.1,0.1,0.2,0.2,0.3
				c0.1,0.1,0.1,0.2,0.2,0.3L396.5,34.7z M393,29.9v1.6h0.6c0.3,0,0.5-0.1,0.7-0.2c0.2-0.2,0.3-0.4,0.3-0.6c0-0.5-0.3-0.8-0.9-0.8
				H393z"/>
			<path class="st1" d="M404.3,29.9h-1.7v4.7h-1.3v-4.7h-1.6v-1.1h4.6V29.9z"/>
			<path class="st1" d="M407.7,34.5v-1.3c0.2,0.2,0.5,0.3,0.8,0.4c0.3,0.1,0.6,0.1,0.8,0.1c0.2,0,0.3,0,0.4,0c0.1,0,0.2-0.1,0.3-0.1
				c0.1-0.1,0.1-0.1,0.2-0.2s0.1-0.1,0.1-0.2c0-0.1,0-0.2-0.1-0.3c-0.1-0.1-0.2-0.2-0.3-0.2c-0.1-0.1-0.2-0.1-0.4-0.2
				s-0.3-0.1-0.5-0.2c-0.5-0.2-0.8-0.4-1-0.7c-0.2-0.3-0.3-0.6-0.3-1c0-0.3,0.1-0.6,0.2-0.8c0.1-0.2,0.3-0.4,0.5-0.5
				c0.2-0.1,0.5-0.2,0.7-0.3c0.3-0.1,0.6-0.1,0.9-0.1c0.3,0,0.6,0,0.8,0.1s0.4,0.1,0.6,0.2v1.2c-0.1-0.1-0.2-0.1-0.3-0.2
				c-0.1-0.1-0.2-0.1-0.4-0.1c-0.1,0-0.2-0.1-0.4-0.1c-0.1,0-0.2,0-0.3,0c-0.1,0-0.3,0-0.4,0c-0.1,0-0.2,0.1-0.3,0.1
				c-0.1,0.1-0.1,0.1-0.2,0.2c0,0.1-0.1,0.2-0.1,0.2c0,0.1,0,0.2,0.1,0.3s0.1,0.1,0.2,0.2c0.1,0.1,0.2,0.1,0.3,0.2s0.3,0.1,0.5,0.2
				c0.2,0.1,0.4,0.2,0.6,0.3s0.3,0.2,0.5,0.4c0.1,0.1,0.2,0.3,0.3,0.5c0.1,0.2,0.1,0.4,0.1,0.6c0,0.3-0.1,0.6-0.2,0.8
				s-0.3,0.4-0.5,0.5c-0.2,0.1-0.5,0.2-0.7,0.3c-0.3,0.1-0.6,0.1-0.9,0.1c-0.3,0-0.6,0-0.9-0.1C408.1,34.7,407.9,34.6,407.7,34.5z"
				/>
			<path class="st1" d="M417.9,34.7h-1.4l-0.4-1.3H414l-0.4,1.3h-1.4l2.1-5.8h1.6L417.9,34.7z M415.8,32.4l-0.6-2
				c0-0.1-0.1-0.3-0.1-0.5h0c0,0.2,0,0.3-0.1,0.5l-0.6,2H415.8z"/>
			<path class="st1" d="M424.2,34.7h-1.3l-2.4-3.7c-0.1-0.2-0.2-0.4-0.3-0.5h0c0,0.2,0,0.5,0,0.9v3.2h-1.2v-5.8h1.4l2.3,3.5
				c0.1,0.2,0.2,0.3,0.3,0.5h0c0-0.1,0-0.4,0-0.8v-3.2h1.2V34.7z"/>
			<path class="st1" d="M430.9,34.7h-1.4l-0.4-1.3H427l-0.4,1.3h-1.4l2.1-5.8h1.6L430.9,34.7z M428.7,32.4l-0.6-2
				c0-0.1-0.1-0.3-0.1-0.5h0c0,0.2,0,0.3-0.1,0.5l-0.6,2H428.7z"/>
			<path class="st1" d="M436.2,28.9l-1.9,3.7v2.1H433v-2l-1.8-3.8h1.5l0.9,2.2c0,0,0.1,0.2,0.1,0.5h0c0-0.2,0.1-0.3,0.1-0.5l1-2.2
				H436.2z"/>
			<path class="st1" d="M438.2,34.8H437v-5.9h1.3V34.8z"/>
			<path class="st1" d="M398.8,34.8h-1.3v-5.9h1.3V34.8z"/>
			<path class="st1" d="M438.2,28.3H437v-1.1h1.3V28.3z"/>
		</g>
		<g>
			<linearGradient id="SVGID_1_" gradientUnits="userSpaceOnUse" x1="295.955" y1="10.8287" x2="295.955" y2="23.2068">
				<stop  offset="0" style="stop-color:#0FAB4D"/>
				<stop  offset="1" style="stop-color:#038948"/>
			</linearGradient>
			<path class="st6" d="M296,10.8c-3.4,0-6.2,2.8-6.2,6.2c0,1.4,0.4,2.6,1.2,3.6l-0.8,2.3l2.4-0.8c1,0.6,2.2,1,3.4,1
				c3.4,0,6.2-2.8,6.2-6.2C302.2,13.6,299.4,10.8,296,10.8L296,10.8z"/>
			<g>
				<path class="st7" d="M303,17c0,3.9-3.2,7-7.1,7c-1.2,0-2.4-0.3-3.4-0.9l-3.9,1.2l1.3-3.8c-0.6-1.1-1-2.3-1-3.6
					c0-3.9,3.2-7,7.1-7C299.8,10,303,13.1,303,17L303,17z M295.9,11.1c-3.3,0-5.9,2.6-5.9,5.9c0,1.3,0.4,2.5,1.1,3.5l-0.7,2.2
					l2.3-0.7c0.9,0.6,2.1,1,3.3,1c3.3,0,5.9-2.6,5.9-5.9C301.9,13.7,299.2,11.1,295.9,11.1L295.9,11.1z M299.5,18.6
					c0-0.1-0.2-0.1-0.3-0.2c-0.2-0.1-1-0.5-1.2-0.6c-0.2-0.1-0.3-0.1-0.4,0.1c-0.1,0.2-0.4,0.6-0.5,0.7c-0.1,0.1-0.2,0.1-0.4,0
					c-0.2-0.1-0.7-0.3-1.4-0.9c-0.5-0.5-0.9-1-1-1.2c-0.1-0.2,0-0.3,0.1-0.4c0.1-0.1,0.2-0.2,0.3-0.3c0.1-0.1,0.1-0.2,0.2-0.3
					c0.1-0.1,0-0.2,0-0.3c0-0.1-0.4-0.9-0.5-1.3c-0.1-0.3-0.3-0.3-0.4-0.3c-0.1,0-0.3,0-0.3,0s-0.3,0-0.5,0.2
					c-0.2,0.2-0.6,0.6-0.6,1.4c0,0.8,0.6,1.7,0.7,1.8c0.1,0.1,1.2,1.9,3,2.6c1.8,0.7,1.8,0.5,2.1,0.4c0.3,0,1-0.4,1.2-0.8
					C299.5,19,299.5,18.7,299.5,18.6L299.5,18.6z M299.5,18.6"/>
			</g>
		</g>
	</g>
</g>
</svg>
